<svg width="171" height="142.5" viewBox="0 0 114 95" fill="none" xmlns="http://www.w3.org/2000/svg">
    <path d="M12.2319 39.228C11.2055 40.8824 11.0849 43.1541 12.1385 45.6956C13.1901 48.2323 15.3538 50.8317 18.463 52.7609C21.5723 54.69 24.8622 55.4742 27.6021 55.29C30.3471 55.1054 32.3289 53.9885 33.3554 52.3341C34.3818 50.6797 34.5025 48.408 33.4489 45.8666C32.3972 43.3299 30.2335 40.7304 27.1243 38.8013C24.015 36.8722 20.7251 36.0879 17.9852 36.2722C15.2402 36.4568 13.2584 37.5737 12.2319 39.228Z"
          fill="#F8EDD5" stroke="black" stroke-width="5"/>
    <path d="M24.8021 43.1078C18.1977 42.9757 19.3212 45.7963 21.6576 51.0263L24.8021 43.1078Z" fill="#F7C7F1"
          stroke="black" stroke-width="2"/>
    <path d="M97.3701 41.9287C98.028 43.7611 97.671 46.0078 96.1093 48.2728C94.5506 50.5336 91.8912 52.6232 88.4474 53.8597C85.0035 55.0961 81.6223 55.1752 78.9815 54.4222C76.3358 53.6677 74.6312 52.1612 73.9733 50.3288C73.3155 48.4963 73.6725 46.2496 75.2341 43.9846C76.7929 41.7239 79.4522 39.6342 82.8961 38.3978C86.34 37.1613 89.7212 37.0822 92.362 37.8353C95.0077 38.5897 96.7122 40.0963 97.3701 41.9287Z"
          fill="#F8EDD5" stroke="black" stroke-width="5"/>
    <path d="M28.3113 74.1242C16.0928 65.9922 17.409 61.8533 23.3876 51.3354C29.3663 40.8174 24.1058 28.0427 29.1905 17.5027C32.6732 12.4686 36.1885 13.7161 39.5311 12.4686C43.3996 3.83339 68.5453 -2.79704 57.643 10.701C62.3497 7.02311 66.8435 7.70533 67.6661 13.2052C68.3695 9.15901 77.9963 12.2787 82.6128 19.2906C87.2293 26.3026 84.5122 36.8032 85.778 41.6439C87.1847 47.0236 87.52 46.8125 88.2398 49.4778C93.1634 67.7088 94.5702 72.1959 85.1088 72.1959C94.2185 72.1959 103.358 88.3486 106 91L62.5666 87.3187L7 89.0286C13.8253 80.3699 18.2912 76.7271 28.3113 74.1242Z"
          fill="#5C3D2A"/>
    <path d="M28.3113 74.1242C16.0928 65.9922 17.409 61.8533 23.3876 51.3354C29.3663 40.8174 24.1058 28.0427 29.1905 17.5027C32.6732 12.4686 36.1885 13.7161 39.5311 12.4686M28.3113 74.1242C51.1941 89.0509 67.6661 82.6093 85.1088 72.1959M28.3113 74.1242C18.2912 76.7271 13.8253 80.3699 7 89.0286L62.5666 87.3187L106 91C103.358 88.3486 94.2185 72.1959 85.1088 72.1959M85.1088 72.1959C94.5702 72.1959 93.1634 67.7088 88.2398 49.4778C87.52 46.8125 87.1847 47.0236 85.778 41.6439C84.5122 36.8032 87.2293 26.3026 82.6128 19.2906C77.9963 12.2787 68.3695 9.15901 67.6661 13.2052C66.8435 7.70533 62.3497 7.02311 57.643 10.701C68.5453 -2.79704 43.3996 3.83339 39.5311 12.4686M39.5311 12.4686C38.7747 12.7129 40.2987 12.1822 39.5311 12.4686Z"
          stroke="black" stroke-width="6"/>
    <path d="M23.3706 51.3193C17.3982 61.8337 16.0834 65.9712 28.2892 74.1005C51.1483 89.0222 67.6032 82.5828 85.0278 72.1729C94.4793 72.1729 93.0741 67.6873 88.1555 49.4623C87.4365 46.798 87.1016 47.0089 85.6963 41.631C84.4318 36.792 87.146 26.2948 82.5344 19.2852C77.9227 12.2756 68.3058 9.15696 67.6032 13.2018C66.7815 7.70376 62.2923 7.02178 57.5905 10.6984C68.4815 -2.79511 43.3619 3.83312 39.4973 12.4655C36.1582 13.7126 32.6466 12.4655 29.1675 17.4978C24.088 28.0344 29.3431 40.8048 23.3706 51.3193Z"
          fill="#5C3D2A"/>
    <path d="M28.2892 74.1005C16.0834 65.9712 17.3982 61.8337 23.3707 51.3193C29.3431 40.8048 24.088 28.0344 29.1675 17.4978C32.6466 12.4655 36.1582 13.7126 39.4973 12.4655M28.2892 74.1005C51.1483 89.0222 67.6032 82.5828 85.0278 72.1729C94.4793 72.1729 93.0741 67.6873 88.1555 49.4623C87.4365 46.798 87.1016 47.0089 85.6963 41.631C84.4318 36.792 87.146 26.2948 82.5344 19.2852C77.9227 12.2756 68.3058 9.15696 67.6032 13.2018C66.7815 7.70376 62.2923 7.02178 57.5905 10.6984C68.4815 -2.79512 43.3619 3.83312 39.4973 12.4655M28.2892 74.1005C18.2795 76.7026 13.8183 80.3441 7 89M39.4973 12.4655C38.7418 12.7097 40.2642 12.1791 39.4973 12.4655Z"
          stroke="black" stroke-width="6"/>
    <path d="M33.2268 28.6628C27.9945 36.9038 33.3109 44.1652 35.6842 56C52.0086 49.2545 62.365 47.4793 77.4607 56C81.2401 44.8804 82.2562 39.0515 79.2161 30.4379C73.248 21.0297 59.9075 21.2072 55.6948 28.6628C50.6044 20.3196 39.7214 19.2545 33.2268 28.6628Z"
          fill="#F8EDD5" stroke="black" stroke-width="4"/>
    <path d="M61.9289 47.2137C63.6099 48.2439 64.4195 49.4286 64.4943 50.4503C64.4634 50.4437 64.431 50.4364 64.3968 50.4282C64.0827 50.3534 63.6981 50.2281 63.2259 50.0562C62.9486 49.9553 62.6355 49.8355 62.2986 49.7067C61.5622 49.4251 60.7121 49.1 59.8733 48.8323C58.6178 48.4316 57.1941 48.0895 55.7436 48.0895C53.3314 48.0895 50.9364 49.0698 49.2632 49.7547C48.9829 49.8694 48.7227 49.9759 48.4862 50.0681C48.0919 50.2217 47.7711 50.3357 47.5076 50.4097C47.5905 49.3408 48.3491 48.176 49.8536 47.189C51.4212 46.1606 53.5689 45.5 55.7436 45.5C57.9245 45.5 60.2169 46.1644 61.9289 47.2137Z"
          fill="#F8EDD5" stroke="black" stroke-width="3"/>
    <path d="M46.1573 36.0541C47.3597 36.3528 48.3241 37.2812 48.8868 38.6124C49.4497 39.9437 49.5939 41.6492 49.1571 43.4068C48.7204 45.1645 47.7948 46.6042 46.6743 47.5173C45.5539 48.4302 44.2672 48.7993 43.0648 48.5005C41.8624 48.2018 40.898 47.2734 40.3352 45.9422C39.7724 44.6109 39.6282 42.9054 40.0649 41.1477C40.5017 39.3901 41.4273 37.9504 42.5478 37.0373C43.6682 36.1243 44.9549 35.7553 46.1573 36.0541Z"
          fill="black" stroke="black"/>
    <path d="M65.1956 36.0541C63.9932 36.3528 63.0288 37.2812 62.466 38.6124C61.9032 39.9437 61.759 41.6492 62.1957 43.4068C62.6324 45.1645 63.5581 46.6042 64.6786 47.5173C65.799 48.4302 67.0857 48.7993 68.2881 48.5005C69.4905 48.2018 70.4549 47.2734 71.0176 45.9422C71.5804 44.6109 71.7246 42.9054 71.2879 41.1477C70.8512 39.3901 69.9255 37.9504 68.805 37.0373C67.6847 36.1243 66.3979 35.7553 65.1956 36.0541Z"
          fill="black" stroke="black"/>
    <circle cx="65.5" cy="39.5" r="1.5" fill="white"/>
    <circle cx="46" cy="39" r="1" fill="white"/>
    <circle cx="43.5" cy="41.5" r="1.5" fill="white"/>
    <ellipse cx="66.5" cy="50" rx="2.5" ry="2" fill="black"/>
    <circle cx="45.5" cy="49.5" r="2.5" fill="black"/>
    <path d="M81 66C81 69.7632 78.5726 73.4658 74.0263 76.3284C69.5062 79.1743 63.1382 81 56 81C48.8618 81 42.4938 79.1743 37.9737 76.3284C33.4274 73.4658 31 69.7632 31 66C31 62.2368 33.4274 58.5342 37.9737 55.6717C42.4938 52.8257 48.8618 51 56 51C63.1382 51 69.5062 52.8257 74.0263 55.6717C78.5726 58.5342 81 62.2368 81 66Z"
          fill="#F8EDD5" stroke="black" stroke-width="4"/>
    <path d="M70.4615 50.2611C70.4359 50.2998 70.3374 50.3874 70.0604 50.3754C69.795 50.3639 69.45 50.2567 69.1079 50.0308C68.7658 49.8048 68.5318 49.5296 68.417 49.29C68.2973 49.0399 68.3391 48.9149 68.3647 48.8762C68.3903 48.8375 68.4888 48.7499 68.7658 48.7619C69.0312 48.7734 69.3762 48.8805 69.7183 49.1065C70.0604 49.3324 70.2944 49.6077 70.4092 49.8473C70.5289 50.0973 70.487 50.2224 70.4615 50.2611Z"
          stroke="black"/>
    <path d="M42.024 51.0381C42.0474 51.0782 42.1411 51.1711 42.4183 51.1742C42.6839 51.1773 43.0343 51.0892 43.3882 50.8823C43.7422 50.6754 43.9909 50.4134 44.1186 50.1804C44.2519 49.9373 44.2169 49.8102 44.1935 49.7701C44.1701 49.7301 44.0765 49.6372 43.7992 49.634C43.5336 49.631 43.1832 49.7191 42.8293 49.926C42.4753 50.1329 42.2266 50.3949 42.0989 50.6279C41.9657 50.871 42.0006 50.9981 42.024 51.0381Z"
          stroke="black"/>
    <path d="M88 42C93.6615 42.6902 92.3904 45.2622 89.817 50L88 42Z" fill="#F7C7F1" stroke="black"
          stroke-width="2"/>
    <path d="M67.4605 58L69 59.3488C59.493 66.7965 53.8112 66.9705 43 59.3488L44.3684 58" stroke="black"
          stroke-width="3"/>
</svg>