<?xml version="1.0" encoding="UTF-8"?>
<!DOCTYPE svg PUBLIC "-//W3C//DTD SVG 1.1//EN" "http://www.w3.org/Graphics/SVG/1.1/DTD/svg11.dtd">
<svg version="1.1" xmlns="http://www.w3.org/2000/svg" xmlns:xlink="http://www.w3.org/1999/xlink" x="0" y="0" width="551" height="540" viewBox="0, 0, 551, 540">
  <g id="Layer_1">
    <path d="M550.051,270.069 C550.051,417.971 430.152,537.871 282.249,537.871 C134.349,537.871 14.45,417.971 14.45,270.069 C14.45,122.169 134.349,2.269 282.249,2.269 C430.152,2.269 550.051,122.169 550.051,270.069" fill="oklch(0.585 0.233 277.117)"/>
    <path d="M420.416,516.215 C418.512,517.299 416.391,519.55 417.073,520.36 C417.754,521.171 415.954,522.226 419.857,521.78 C422.114,521.521 425.678,517.936 425.678,517.936 C425.678,517.936 422.321,515.127 420.416,516.215 M408.879,515.279 C407.112,516.445 404.886,517.994 405.568,518.805 C406.249,519.615 404.659,521.646 408.563,521.202 C410.819,520.943 413.009,518.64 414.078,517.265 C415.146,515.888 410.646,514.111 408.879,515.279 M400.263,512.885 C398.118,514.182 395.819,515.673 396.501,516.483 C397.183,517.296 395.424,518.978 399.329,518.531 C401.584,518.272 403.407,515.853 404.157,514.752 C404.906,513.653 402.407,511.587 400.263,512.885 M404.273,505.964 C403.262,505.652 403.496,503.081 400.457,505.576 C398.702,507.016 395.746,510.522 397.42,511.422 C399.095,512.325 403.223,509.475 403.223,509.475 C403.223,509.475 405.287,506.275 404.273,505.964 M337.305,508.882 C337.305,508.882 333.678,511.917 334.358,512.728 C335.04,513.539 333.45,515.57 337.354,515.124 C339.609,514.865 340.836,513.646 341.672,511.249 C342.506,508.85 337.305,508.882 337.305,508.882 M324.265,505.99 C322.467,507.217 320.458,508.872 320.339,509.924 C320.146,511.628 320.651,512.84 324.557,512.394 C326.812,512.136 327.956,509.907 328.47,508.882 C328.982,507.855 326.062,504.763 324.265,505.99 M314.236,501.844 C312.479,503.284 312.133,505.074 312.289,506.788 C312.444,508.503 316.571,507.617 317.233,506.633 C317.897,505.649 318.195,503.282 318.052,502.232 C317.936,501.375 317.273,499.352 314.236,501.844 M476.372,437.812 C476.482,429.894 475.187,421.976 472.789,414.413 C470.316,406.885 466.728,399.649 461.738,393.438 C457.466,388.079 452.049,383.436 445.831,380.692 C445.44,380.519 445.037,380.377 444.64,380.22 C444.064,379.993 443.494,379.752 442.907,379.56 C443.596,379.952 444.262,380.376 444.924,380.804 C445.044,380.88 445.171,380.949 445.291,381.03 C450.972,384.775 455.624,389.708 459.407,395.177 C463.682,401.425 466.937,408.344 469.232,415.56 C470.424,419.156 471.345,422.845 472.039,426.573 C472.784,430.299 473.193,434.081 473.455,437.877 C473.882,445.476 473.332,453.162 471.414,460.718 C474.813,453.674 476.271,445.703 476.372,437.812 M176.709,423.524 C175.326,428.557 173.132,433.396 169.926,437.818 C174.271,434.477 177.482,429.644 179.483,424.434 C181.519,419.203 182.309,413.489 181.931,407.854 C181.492,402.224 179.856,396.677 177.067,391.816 C174.314,386.943 170.513,382.753 166.093,379.56 C169.446,383.881 172.364,388.327 174.466,393.118 C176.549,397.899 177.869,402.968 178.203,408.122 C178.234,409.413 178.383,410.702 178.336,411.994 C178.25,413.281 178.263,414.582 178.104,415.867 C177.868,418.447 177.375,421.002 176.709,423.524 M191.683,324.648 C192.953,317.871 193.302,310.839 192.046,304.037 C190.876,297.24 188.395,290.725 184.787,285.002 C187.002,291.415 188.567,297.853 189.163,304.4 C189.233,306.047 189.332,307.681 189.432,309.311 L189.286,314.217 C189.032,317.474 188.728,320.733 188.016,323.928 C187.792,325.549 187.333,327.122 186.932,328.708 C186.714,329.495 186.552,330.3 186.293,331.076 L185.508,333.403 C185.246,334.178 185.022,334.97 184.737,335.735 L183.805,338.011 C183.219,339.545 182.515,341.023 181.792,342.5 C178.852,348.345 175.35,354.092 169.926,358.16 C173.12,356.913 175.753,354.571 178.203,352.171 C180.498,349.619 182.646,346.886 184.354,343.897 C187.899,337.983 190.312,331.417 191.683,324.648 M163.289,513.429 L163.19,513.447 C163.057,513.516 162.867,513.918 162.933,514.707 C163.063,516.254 164.26,519.022 166.925,519.857 C167.558,520.055 168.061,519.677 168.309,519.436 C169.02,518.744 169.63,517.16 169.009,514.973 C168.743,514.046 168.528,513.936 168.526,513.935 C168.422,513.93 168.081,514.106 167.875,514.216 C167.119,514.62 165.854,515.294 164.435,514.067 L164.435,514.065 C163.851,513.56 163.472,513.429 163.289,513.429 M161.044,515.76 C160.941,515.794 160.618,515.926 160.421,516.027 C159.677,516.417 158.436,517.064 156.988,515.94 C156.89,515.866 156.67,515.711 156.499,515.711 L156.401,515.734 C156.167,515.864 155.888,516.504 155.99,517.531 C156.149,519.076 157.141,520.987 159.45,521.709 C160.067,521.905 160.586,521.528 160.833,521.286 C161.545,520.595 162.153,519.011 161.534,516.825 C161.265,515.878 161.046,515.762 161.044,515.76 M150.738,516.703 C150.636,516.718 150.293,516.872 150.087,516.983 C149.331,517.387 148.065,518.064 146.647,516.837 L146.647,516.835 C146.063,516.327 145.686,516.196 145.501,516.196 L145.405,516.216 C145.271,516.283 145.08,516.685 145.147,517.475 C145.277,519.022 146.475,521.792 149.14,522.626 C149.769,522.824 150.272,522.445 150.522,522.202 C151.231,521.51 151.84,519.927 151.219,517.741 C150.954,516.812 150.739,516.704 150.738,516.703 M140.844,517.373 C140.732,517.382 140.399,517.543 140.195,517.653 C139.438,518.056 138.173,518.735 136.755,517.501 C136.17,516.997 135.793,516.866 135.607,516.866 L135.511,516.882 C135.378,516.951 135.188,517.354 135.253,518.143 C135.383,519.693 136.58,522.46 139.246,523.294 C139.876,523.493 140.379,523.114 140.629,522.871 C141.34,522.179 141.947,520.595 141.328,518.41 C141.062,517.483 140.846,517.375 140.844,517.373 M132.783,501.116 C132.657,501.073 132.131,501.259 131.818,501.37 C130.676,501.776 128.763,502.458 127.038,500.448 L127.037,500.447 C126.264,499.544 125.735,499.312 125.503,499.312 L125.43,499.324 C125.227,499.393 124.879,499.916 124.806,501.032 C124.667,503.226 125.77,507.344 129.321,509.063 C130.155,509.468 130.945,509.044 131.342,508.759 C132.48,507.937 133.66,505.848 133.244,502.665 C133.067,501.313 132.788,501.117 132.783,501.116 M122.263,504.685 C122.082,503.307 121.803,503.098 121.8,503.096 C121.673,503.062 121.17,503.235 120.876,503.337 C119.755,503.728 117.881,504.38 116.09,502.505 C115.96,502.368 115.651,502.076 115.407,502.076 L115.313,502.094 C114.96,502.227 114.437,503.066 114.367,504.519 C114.266,506.714 115.257,509.593 118.34,511.083 C119.174,511.485 119.964,511.064 120.36,510.778 C121.498,509.957 122.679,507.87 122.263,504.685 M110.031,502.65 C109.897,502.604 109.377,502.794 109.066,502.904 C107.921,503.315 106.01,503.997 104.284,501.982 C103.508,501.076 102.981,500.849 102.749,500.849 L102.676,500.858 C102.473,500.927 102.125,501.448 102.054,502.566 C101.913,504.761 103.014,508.879 106.567,510.598 C107.401,511.002 108.191,510.579 108.588,510.291 C109.727,509.471 110.905,507.384 110.491,504.197 C110.315,502.849 110.034,502.651 110.031,502.65 M96.866,501.116 C96.73,501.067 96.211,501.259 95.899,501.37 C94.756,501.776 92.843,502.456 91.12,500.448 C90.343,499.544 89.815,499.312 89.584,499.312 L89.51,499.324 C89.309,499.393 88.961,499.916 88.888,501.034 C88.748,503.226 89.849,507.344 93.4,509.063 C94.235,509.466 95.025,509.043 95.424,508.759 C96.561,507.937 97.741,505.851 97.325,502.665 C97.149,501.313 96.869,501.117 96.866,501.116 M94.137,492.61 C91.984,491.414 88.94,493.59 88.498,497.795 C88.636,497.71 88.763,497.603 88.918,497.549 C89.69,497.295 90.947,497.374 92.539,499.232 C93.386,500.221 94.093,500.029 95.272,499.61 C96.075,499.32 96.987,498.995 97.842,499.521 C98.203,499.742 98.488,500.082 98.708,500.561 C98.611,497.844 97.279,494.353 94.137,492.61 M108.436,501.144 L108.611,501.087 C109.912,498.891 109.747,493.731 105.217,491.215 C102.764,489.853 99.154,492.861 99.55,498.268 C99.672,499.928 100.047,500.543 100.587,500.698 C100.915,499.894 101.412,499.31 102.084,499.086 C102.856,498.827 104.114,498.91 105.704,500.765 L105.704,500.768 C106.553,501.753 107.26,501.561 108.436,501.144 M117.442,501.215 C118.357,502.172 119.11,501.975 120.26,501.572 C120.652,501.436 121.069,501.291 121.495,501.242 C121.707,498.449 120.453,494.316 116.941,492.364 C114.489,491.004 110.88,494.011 111.275,499.416 C111.447,501.787 112.171,502.006 113.147,501.799 C113.521,501.088 114.038,500.575 114.658,500.344 C115.195,500.141 116.271,499.989 117.442,501.215 M129.998,494.643 C128.284,493.689 126.006,494.881 124.927,497.53 C125.704,497.307 126.927,497.445 128.459,499.232 C129.304,500.221 130.013,500.03 131.189,499.61 C131.994,499.32 132.904,498.995 133.761,499.521 C133.874,499.591 133.966,499.69 134.063,499.783 C133.413,497.791 132.117,495.819 129.998,494.643 M171.94,164.269 C176.703,166.153 181.151,168.865 185.15,172.127 C189.205,175.34 192.709,179.226 195.724,183.463 C201.653,191.982 205.153,202.447 204.252,213.387 C205.891,208.157 206.109,202.447 205.236,196.907 C204.313,191.367 202.302,185.981 199.416,181.111 C196.586,176.192 192.817,171.845 188.567,168.063 C184.264,164.334 179.351,161.278 174.044,159.073 C168.706,156.974 162.963,155.679 157.151,155.75 C151.36,155.853 145.554,157.131 140.417,159.714 C135.252,162.228 130.745,165.854 127.08,170.063 C123.463,174.332 120.575,179.076 118.346,184.061 C121.645,179.692 125.062,175.52 129.028,171.987 C132.957,168.432 137.438,165.616 142.188,163.697 C151.726,159.846 162.516,160.287 171.94,164.269 M66.983,427.156 C64.558,423.867 62.238,420.499 60.199,416.966 C58.118,413.463 56.242,409.838 54.638,406.105 C52.977,402.397 51.605,398.568 50.523,394.668 C49.403,390.776 48.683,386.783 48.296,382.763 C47.57,374.722 48.683,366.457 52.221,358.878 C47.311,365.679 45.16,374.416 45.393,382.916 C45.564,391.472 47.865,399.837 51.218,407.607 C54.65,415.363 59.194,422.595 64.713,428.987 C67.459,432.19 70.475,435.165 73.73,437.842 C77.02,440.463 80.579,442.822 84.466,444.362 C77.478,439.807 71.934,433.644 66.983,427.156 M15.146,202.746 C16.665,198.254 18.765,193.927 21.75,190.215 C24.688,186.465 28.582,183.445 33.06,181.425 C28.299,182.666 23.88,185.383 20.382,189.003 C16.885,192.642 14.264,197.073 12.416,201.75 C8.696,211.153 7.821,221.338 8.207,231.26 C8.727,241.206 10.706,251.075 14.323,260.359 C16.14,264.989 18.417,269.476 21.379,273.512 C22.828,275.546 24.587,277.371 26.466,279.011 C28.442,280.551 30.649,281.826 33.06,282.366 C30.766,281.443 28.865,279.92 27.167,278.249 C25.576,276.45 24.074,274.588 22.901,272.486 C20.419,268.39 18.587,263.916 17.066,259.365 C15.601,254.789 14.395,250.122 13.576,245.385 C12.713,240.658 12.12,235.872 11.938,231.077 C11.68,226.285 11.79,221.48 12.276,216.727 C12.731,211.972 13.661,207.262 15.146,202.746 M208.655,167.463 L208.638,167.455 L208.559,167.438 L208.655,167.463 M347.641,277.406 C343.934,267.465 338.563,258.066 331.17,250.772 C337.249,259.194 340.773,268.94 342.691,278.795 C344.537,288.701 344.833,298.795 344.02,308.713 C343.604,313.472 342.941,318.202 342.027,322.847 C342.194,315.966 341.891,309.134 341.199,302.362 C339.979,291.14 337.631,280.053 333.704,269.557 C329.74,259.124 324.144,249.166 316.288,241.502 C322.836,250.302 326.582,260.598 328.768,270.995 C330.896,281.445 331.437,292.131 330.923,302.67 C330.662,307.428 330.18,312.168 329.484,316.852 C329.423,309.872 328.938,302.949 328.099,296.089 C326.569,284.34 323.987,272.736 319.782,261.73 C315.559,250.793 309.732,240.268 301.407,232.233 C308.431,241.415 312.405,252.271 314.859,263.213 C317.271,274.209 318.052,285.485 317.832,296.641 C317.706,301.357 317.39,306.065 316.888,310.731 C316.626,303.717 315.986,296.76 315.005,289.863 C313.208,277.574 310.349,265.445 305.888,253.915 C303.665,248.155 301.018,242.559 297.835,237.301 C294.84,232.36 291.337,227.734 287.27,223.727 C287.017,223.479 286.784,223.209 286.526,222.965 C286.77,223.27 286.979,223.599 287.217,223.91 C290.635,228.415 293.361,233.352 295.549,238.477 C297.886,243.962 299.646,249.657 300.978,255.435 C303.651,266.993 304.711,278.851 304.752,290.628 C304.754,295.336 304.58,300.044 304.235,304.722 C303.796,297.645 303.009,290.629 301.91,283.671 C299.831,270.841 296.717,258.178 291.995,246.118 C289.645,240.094 286.851,234.237 283.523,228.722 C282.725,227.4 281.89,226.106 281.022,224.832 C278.272,220.789 275.173,217.002 271.646,213.695 C274.185,216.82 276.355,220.187 278.243,223.697 C279.331,225.726 280.327,227.801 281.24,229.904 C283.724,235.653 285.634,241.614 287.096,247.675 C290.041,259.791 291.355,272.237 291.673,284.622 C291.774,289.282 291.735,293.946 291.535,298.587 C290.934,291.503 290.016,284.479 288.819,277.512 C286.47,264.131 283.09,250.928 278.112,238.332 C275.623,232.042 272.699,225.919 269.217,220.144 C269.005,219.787 268.767,219.447 268.544,219.095 C265.207,213.73 261.345,208.678 256.765,204.426 C260.012,208.335 262.686,212.632 264.948,217.116 C265.649,218.506 266.315,219.911 266.939,221.333 C269.578,227.345 271.62,233.584 273.223,239.922 C276.427,252.604 278.015,265.634 278.601,278.63 C278.789,283.186 278.848,287.749 278.778,292.299 C278.037,285.269 277.009,278.299 275.735,271.377 C273.117,257.441 269.473,243.696 264.239,230.56 C261.606,224.003 258.558,217.604 254.92,211.569 C254.665,211.15 254.399,210.737 254.141,210.318 C253.584,209.428 253.014,208.544 252.427,207.672 C249.36,203.111 245.882,198.843 241.882,195.156 C246.382,200.473 249.843,206.503 252.643,212.766 L252.663,212.812 C255.449,219.074 257.614,225.576 259.358,232.178 C262.825,245.429 264.684,259.041 265.533,272.645 C265.798,277.139 265.942,281.637 265.983,286.125 C265.118,279.121 264.004,272.17 262.656,265.269 C260.224,253.019 257.041,240.922 252.804,229.207 C252.025,227.058 251.225,224.916 250.375,222.794 C247.597,215.969 244.421,209.299 240.626,203.002 C236.819,196.727 232.372,190.791 227.002,185.888 C231.751,191.392 235.381,197.682 238.353,204.202 C241.309,210.743 243.606,217.543 245.503,224.438 C247.88,233.256 249.604,242.228 250.831,251.258 C250.85,251.4 250.866,251.541 250.884,251.685 C250.771,251.4 250.655,251.11 250.54,250.826 L250.513,250.772 C250.439,250.582 250.349,250.369 250.269,250.172 C249.532,248.388 248.785,246.638 248.036,244.921 C238.449,223.114 216.978,181.36 212.879,173.42 L210.351,170.839 C209.627,170.105 208.855,169.352 208.097,168.532 C207.706,168.102 207.341,167.714 206.866,167.08 L206.669,166.8 C206.605,166.705 206.523,166.577 206.428,166.399 C206.391,166.333 206.339,166.236 206.271,166.076 C206.202,165.899 206.176,165.881 206.082,165.516 C206.047,165.367 206.021,165.214 206.005,165.061 C205.984,164.958 205.981,164.475 206.05,164.193 C206.111,163.887 206.199,163.571 206.487,163.118 C206.729,162.73 207.196,162.339 207.402,162.231 C207.672,162.067 207.977,161.941 208.276,161.865 C208.491,161.816 208.585,161.809 208.75,161.792 C208.885,161.78 209.076,161.775 209.159,161.781 L209.386,161.799 C209.738,161.841 209.819,161.875 210.023,161.923 C210.294,162.002 210.502,162.079 210.68,162.152 C211.971,162.71 212.795,163.228 213.751,163.772 L216.448,165.405 L221.716,168.702 L232.187,175.267 C239.185,179.597 246.248,183.808 253.446,187.78 C260.643,191.75 267.966,195.499 275.51,198.766 C283.054,201.999 290.824,204.87 298.97,206.262 C290.753,205.341 282.76,202.903 274.982,200.087 C267.201,197.236 259.614,193.883 252.143,190.309 C244.674,186.726 237.325,182.895 230.048,178.954 L226.773,177.155 C227.336,177.638 227.893,178.138 228.456,178.618 C234.678,183.938 241.023,189.026 247.615,193.671 C257.62,200.74 268.279,206.762 279.432,210.906 C281.999,211.688 284.511,212.508 286.94,213.387 C287.981,213.686 289.027,213.972 290.076,214.238 L289.981,214.56 C340.914,234.249 359.986,274.775 354.188,307.558 C353.237,297.237 351.163,287.051 347.641,277.406 M84.852,61.34 C82.154,64.328 79.635,67.492 77.611,70.967 C78.813,69.359 80.069,67.806 81.404,66.317 C82.71,64.807 84.065,63.341 85.479,61.936 C88.291,59.124 91.239,56.425 94.515,54.199 C97.729,51.92 101.287,50.018 105.138,49.298 C108.977,48.516 113.083,49.538 116.244,52.039 C114.807,50.64 113.042,49.545 111.098,48.9 C109.143,48.279 107.035,48.165 105.002,48.439 C100.901,49.02 97.21,51.017 93.869,53.274 C90.569,55.633 87.565,58.363 84.852,61.34 M112.708,62.359 C110.63,61.672 108.424,61.388 106.229,61.427 C101.822,61.534 97.556,62.928 93.648,64.828 C89.766,66.814 86.141,69.276 82.895,72.162 C79.722,75.075 76.591,78.261 74.809,82.231 C75.854,80.342 77.261,78.708 78.745,77.169 C80.217,75.617 81.801,74.169 83.458,72.818 C86.769,70.121 90.317,67.695 94.148,65.838 C97.93,63.904 102.046,62.573 106.265,62.294 C110.476,61.988 114.785,63.099 118.346,65.554 C116.707,64.15 114.774,63.075 112.708,62.359 M110.744,75.805 L109.18,75.252 C108.148,74.832 107.056,74.648 105.973,74.411 C101.599,73.595 97.067,74.083 92.829,75.292 C88.595,76.574 84.604,78.576 81.018,81.109 C77.428,83.644 74.195,86.641 71.38,89.971 C74.536,86.96 77.87,84.169 81.499,81.828 C85.121,79.493 89.009,77.531 93.146,76.375 C97.243,75.118 101.599,74.657 105.833,75.268 C110.062,75.861 114.142,77.649 117.413,80.547 C115.898,78.988 114.192,77.558 112.224,76.55 L110.744,75.805 z M110.401,94.455 C109.479,92.697 108.078,91.183 106.417,90.035 C104.736,88.909 102.818,88.167 100.856,87.703 C96.898,86.811 92.81,87.066 88.871,87.691 C84.936,88.423 81.095,89.602 77.447,91.214 C75.631,92.033 73.852,92.944 72.157,93.997 C70.502,95.089 68.827,96.25 67.618,97.839 C69.013,96.428 70.706,95.395 72.437,94.472 C74.159,93.532 75.953,92.722 77.781,92.012 C81.438,90.596 85.204,89.426 89.065,88.804 C92.901,88.107 96.856,87.871 100.678,88.556 C104.476,89.208 108.155,91.137 110.401,94.455 M85.007,50.504 C82.77,52.934 80.789,55.605 79.232,58.503 C77.687,61.404 76.422,64.466 75.723,67.662 C76.301,66.137 76.914,64.632 77.663,63.192 C78.358,61.728 79.147,60.315 79.982,58.935 C81.667,56.185 83.583,53.578 85.824,51.281 C86.893,50.078 88.105,49.028 89.315,47.974 C89.931,47.458 90.604,47.021 91.247,46.54 L92.222,45.834 L93.252,45.21 C93.943,44.805 94.619,44.358 95.328,43.98 L97.523,42.961 C98.238,42.572 99.002,42.306 99.77,42.047 C100.537,41.782 101.302,41.501 102.068,41.214 C98.886,41.863 95.671,42.779 92.814,44.46 C89.915,46.037 87.278,48.106 85.007,50.504 M75.784,49.966 C76.692,47.319 77.806,44.742 79.228,42.351 C80.674,40 82.514,37.789 85.089,36.539 C83.715,36.928 82.468,37.716 81.358,38.636 C80.272,39.588 79.336,40.701 78.5,41.875 C76.847,44.247 75.67,46.898 74.718,49.593 C73.783,52.298 73.077,55.071 72.577,57.875 C72.079,60.677 71.716,63.505 71.65,66.347 C72.181,63.558 72.754,60.792 73.423,58.055 C74.117,55.324 74.842,52.603 75.784,49.966 M66.554,57.543 C67.198,60.171 67.988,62.763 69.045,65.25 C68.434,62.623 67.862,60.002 67.4,57.365 C66.954,54.727 66.566,52.086 66.412,49.434 C66.252,46.791 66.293,44.122 66.889,41.576 C67.455,39.051 68.887,36.613 71.38,35.451 C70.075,35.81 68.885,36.618 67.973,37.667 C67.076,38.739 66.472,40.026 66.054,41.342 C65.216,43.999 65.147,46.788 65.285,49.503 C65.472,52.224 65.898,54.914 66.554,57.543 M56.55,47.121 C56.798,47.578 56.994,48.063 57.172,48.555 C57.55,49.529 57.857,50.537 58.131,51.554 C58.681,53.589 59.206,55.633 59.693,57.69 L61.201,63.862 C61.712,65.92 62.218,67.98 62.814,70.033 C62.678,67.9 62.384,65.79 62.047,63.689 C61.72,61.583 61.281,59.5 60.791,57.425 C60.274,55.357 59.714,53.293 58.957,51.286 C58.577,50.283 58.17,49.288 57.676,48.326 C57.414,47.853 57.134,47.388 56.798,46.955 C56.482,46.538 56.047,46.076 55.492,46.043 C56.011,46.203 56.297,46.681 56.55,47.121 M51.991,58.076 C53.284,60.19 54.275,62.504 55.153,64.85 C56.045,67.198 56.791,69.608 57.537,72.019 C58.263,74.441 58.936,76.881 59.621,79.332 C59.393,76.792 58.931,74.286 58.374,71.8 C57.82,69.31 57.093,66.858 56.21,64.455 C55.291,62.07 54.243,59.694 52.711,57.589 C51.941,56.548 51.067,55.548 49.969,54.808 C48.874,54.095 47.481,53.706 46.24,54.075 C47.523,53.97 48.725,54.456 49.643,55.255 C50.591,56.024 51.341,57.024 51.991,58.076 M42.21,85.155 C43.321,85.537 44.378,86.092 45.386,86.717 C47.397,87.976 49.298,89.425 51.04,91.04 C52.796,92.642 54.401,94.409 55.777,96.338 C57.129,98.269 58.269,100.422 58.53,102.843 C58.743,100.385 57.756,97.957 56.502,95.866 C55.245,93.739 53.596,91.884 51.804,90.211 C49.989,88.561 48.002,87.085 45.811,85.957 C44.713,85.405 43.571,84.916 42.363,84.621 C41.759,84.48 41.128,84.413 40.504,84.445 C39.889,84.468 39.226,84.668 38.824,85.142 C39.854,84.424 41.137,84.78 42.21,85.155 M52.286,76.607 C53.789,78.939 55.051,81.43 56.242,83.96 C57.447,86.487 58.417,89.124 59.621,91.685 L58.447,87.621 C58.017,86.277 57.545,84.942 57.037,83.62 C56.023,80.975 54.76,78.414 53.236,76 C51.701,73.601 49.859,71.344 47.575,69.577 C46.422,68.712 45.169,67.974 43.83,67.452 C42.482,66.962 41.064,66.658 39.649,66.666 C42.446,67.123 44.956,68.447 47.024,70.25 C49.073,72.087 50.813,74.259 52.286,76.607 M77.611,127.349 C77.611,126.748 77.124,126.261 76.521,126.261 C75.919,126.261 75.431,126.748 75.431,127.349 C75.431,127.952 75.919,128.439 76.521,128.439 C77.124,128.439 77.611,127.952 77.611,127.349 M37.733,126.261 C37.131,126.261 36.643,126.748 36.643,127.349 C36.643,127.952 37.131,128.439 37.733,128.439 C38.335,128.439 38.824,127.952 38.824,127.349 C38.824,126.748 38.335,126.261 37.733,126.261 M80.922,136.344 C82.118,136.398 83.346,136.231 84.451,135.725 C85.527,135.243 86.61,134.432 86.959,133.272 C85.997,133.918 85.004,134.141 84.014,134.333 C83.02,134.493 82.023,134.555 81.024,134.479 C80.023,134.438 79.024,134.259 78,134.059 C76.969,133.853 75.956,133.518 74.809,133.272 C76.256,135.081 78.527,136.187 80.922,136.344 M35.107,134.295 C36.102,135 37.282,135.53 38.594,135.701 C39.903,135.852 41.282,135.555 42.366,134.917 C43.457,134.28 44.305,133.448 45.055,132.497 C43.876,132.805 42.808,133.277 41.786,133.579 C40.758,133.856 39.793,133.979 38.808,133.848 C37.822,133.752 36.825,133.4 35.797,133.016 C34.764,132.632 33.747,132.116 32.592,131.721 C33.268,132.722 34.094,133.609 35.107,134.295 M85.467,124.71 C84.399,123.129 82.721,121.981 80.922,121.384 C79.108,120.805 77.182,120.705 75.364,121.078 C73.563,121.439 71.785,122.256 70.603,123.619 C72.237,122.895 73.894,122.599 75.544,122.519 C77.19,122.468 78.83,122.641 80.336,123.156 C81.853,123.638 83.222,124.476 84.333,125.628 C85.448,126.789 86.252,128.272 86.959,129.923 C87.023,128.147 86.558,126.273 85.467,124.71 M43.77,123.497 C44.758,124.334 45.564,125.417 46.24,126.735 C46.333,125.262 45.812,123.709 44.826,122.491 C43.853,121.251 42.44,120.376 40.918,119.942 C39.389,119.539 37.721,119.561 36.247,120.156 C34.774,120.721 33.526,121.893 33.06,123.309 C34.179,122.34 35.406,121.779 36.664,121.548 C37.923,121.33 39.21,121.393 40.423,121.745 C41.644,122.065 42.78,122.673 43.77,123.497 M40.515,151.298 C40.492,151.648 40.528,152.054 40.603,152.36 C40.676,152.655 40.733,152.966 40.831,153.243 C40.997,153.82 41.22,154.357 41.458,154.885 C41.927,155.939 42.47,156.938 43.081,157.895 C43.678,158.856 44.351,159.769 45.07,160.641 C45.803,161.49 46.564,162.37 47.547,162.948 C46.826,162.097 46.314,161.119 45.782,160.158 C45.253,159.193 44.778,158.206 44.303,157.224 C43.851,156.232 43.413,155.24 43.044,154.24 C42.862,153.74 42.704,153.235 42.565,152.745 C42.434,152.234 42.311,151.766 42.359,151.426 C42.433,150.669 42.914,149.811 43.597,149.063 C44.256,148.294 45.061,147.584 45.889,146.892 C47.556,145.508 49.371,144.208 51.052,142.702 C48.95,143.509 46.918,144.439 44.999,145.672 C44.04,146.291 43.112,146.986 42.27,147.852 C41.476,148.722 40.616,149.805 40.515,151.298 M51.052,133.272 C52.122,132.852 53.075,132.434 54.038,132.113 C54.997,131.802 55.946,131.556 56.903,131.474 C57.859,131.352 58.819,131.385 59.783,131.535 C60.751,131.7 61.705,131.994 62.735,132.497 C62.269,131.444 61.306,130.621 60.219,130.142 C59.125,129.639 57.89,129.497 56.702,129.615 C54.314,129.881 52.165,131.298 51.052,133.272 M58.063,158.474 C56.895,162.097 53.039,161.278 53.039,158.474 C53.039,155.67 49.883,152.824 47.196,153.567 C43.569,154.568 47.839,158.192 50.001,160.927 C51.597,162.948 57.673,162.367 60.478,161.784 C63.28,161.2 65.656,155.32 63.754,154.034 C61.855,152.749 59.23,154.852 58.063,158.474 M87.971,109.91 C86.868,107.95 84.774,106.536 82.469,106.131 C80.157,105.726 77.828,106.075 75.628,106.57 C71.206,107.593 67.056,109.205 62.801,110.285 C58.628,111.593 54.31,111.415 50.001,110.545 C47.855,110.117 45.724,109.533 43.589,108.908 C42.517,108.611 41.445,108.295 40.354,108.022 C39.806,107.891 39.253,107.762 38.674,107.724 C38.394,107.715 38.068,107.711 37.811,107.915 C37.552,108.154 37.661,108.494 37.733,108.742 C37.696,108.477 37.679,108.151 37.896,108.027 C38.104,107.91 38.387,107.949 38.643,108.003 C39.17,108.11 39.691,108.296 40.207,108.493 C41.238,108.892 42.259,109.338 43.291,109.769 C45.362,110.604 47.477,111.392 49.673,111.962 C51.857,112.561 54.129,112.919 56.437,112.999 C58.735,113.094 61.121,112.669 63.273,112.093 C67.65,110.942 71.804,109.248 75.99,107.982 C78.084,107.385 80.223,106.878 82.347,107.038 C84.48,107.123 86.513,108.199 87.971,109.91 M87.971,113.961 C86.868,112 84.774,110.587 82.469,110.179 C80.157,109.775 77.828,110.127 75.628,110.621 C71.206,111.645 67.056,113.253 62.801,114.336 C58.628,115.644 54.31,115.466 50.001,114.597 C47.855,114.167 45.724,113.585 43.589,112.958 C42.517,112.661 41.445,112.345 40.354,112.073 C39.806,111.941 39.253,111.812 38.674,111.774 C38.394,111.767 38.068,111.761 37.811,111.967 C37.552,112.205 37.661,112.543 37.733,112.792 C37.696,112.527 37.679,112.202 37.896,112.077 C38.104,111.961 38.387,111.997 38.643,112.053 C39.17,112.158 39.691,112.347 40.207,112.543 C41.238,112.941 42.259,113.389 43.291,113.818 C45.362,114.656 47.477,115.442 49.673,116.011 C51.857,116.612 54.129,116.971 56.437,117.049 C58.735,117.144 61.121,116.721 63.273,116.144 C67.65,114.992 71.804,113.297 75.99,112.033 C78.084,111.434 80.223,110.928 82.347,111.089 C84.48,111.172 86.513,112.248 87.971,113.961 M33.177,134.991 C40.624,138.686 44.972,137.061 46.811,135.88 C46.561,136.713 46.193,137.469 45.535,137.995 C44.704,138.67 43.549,139.003 42.392,139.187 C41.227,139.388 40.023,139.405 38.824,139.43 C40.015,139.561 41.214,139.701 42.436,139.651 C43.644,139.609 44.922,139.456 46.077,138.756 C47.255,138.05 47.922,136.748 48.339,135.582 C48.725,134.482 48.996,133.399 49.295,132.344 C49.387,132.239 49.477,132.141 49.573,132.032 C51.987,129.302 55.569,125.267 68.378,131.922 C68.599,133.044 68.75,134.183 68.762,135.365 C68.798,136.18 68.726,136.998 68.943,137.962 C69.04,138.445 69.359,138.964 69.768,139.283 C70.18,139.623 70.634,139.76 71.058,139.882 C72.717,140.281 74.333,140.486 75.975,140.695 C77.608,140.893 79.244,141.052 80.883,141.184 C79.266,140.898 77.653,140.584 76.051,140.234 C74.461,139.878 72.837,139.507 71.341,138.991 C70.606,138.721 70.146,138.348 70.085,137.717 C69.993,137.064 70.111,136.224 70.164,135.402 C70.207,134.878 70.226,134.347 70.231,133.809 C70.569,134.273 70.95,134.679 71.38,134.991 C74.809,137.482 80.728,139.664 87.582,137.173 C94.435,134.68 91.632,125.956 82.44,120.347 C74.879,115.735 69.442,118.711 68.004,122.167 C67.973,121.522 67.957,120.877 67.976,120.231 C67.995,119.676 68.028,119.117 68.115,118.565 C68.207,118.029 68.288,117.428 68.718,117.053 C68.231,117.368 68.053,117.989 67.888,118.513 C67.721,119.062 67.609,119.623 67.51,120.185 C67.32,121.311 67.216,122.449 67.163,123.595 C67.107,124.739 67.129,125.892 67.218,127.05 C67.282,127.836 67.38,128.625 67.55,129.42 C58.392,125.066 53.709,126.191 50.859,128.227 C50.831,127.059 50.739,125.898 50.499,124.767 C50.169,123.251 49.646,121.727 48.677,120.542 C49.376,121.894 49.555,123.403 49.57,124.868 C49.571,125.556 49.522,126.236 49.442,126.912 C48.877,124.398 47.136,121.695 43.03,119.414 C31.815,113.183 31.191,122.84 31.191,122.84 C31.191,122.84 27.467,117.142 29.635,110.248 C33.529,97.864 40.631,101.188 46.24,104.616 C60.571,112.716 59.253,105.958 79.505,102.843 C99.755,99.728 100.131,116.568 99.122,122.997 C97.877,130.933 96.618,129.694 98.797,140.6 C100.978,151.503 91.632,155.554 87.271,158.045 C85.443,159.09 84.306,161.645 83.687,164.87 C83.05,163.098 82.23,161.382 81.228,159.783 C79.72,157.426 77.869,155.311 75.79,153.499 C73.869,151.81 71.775,150.348 69.555,149.114 C68.721,148.181 67.833,147.306 66.901,146.481 C65.154,144.989 63.318,143.473 61.1,142.702 C62.886,144.129 64.342,145.869 65.868,147.519 C67.344,149.21 68.826,150.913 70.031,152.716 C70.621,153.561 71.192,154.644 71.209,155.253 C71.188,156.015 70.594,156.999 69.992,157.87 C68.711,159.637 67.12,161.277 65.54,162.948 C67.587,161.873 69.481,160.522 71.111,158.776 C71.898,157.879 72.714,156.92 72.956,155.387 C73.012,154.502 72.73,153.88 72.483,153.294 C72.218,152.715 71.909,152.191 71.585,151.685 C71.249,151.193 70.9,150.722 70.537,150.266 C73.94,153.567 77.22,156.876 79.648,160.778 C81.065,162.986 82.183,165.375 83.075,167.872 C83.129,168.02 83.172,168.173 83.224,168.324 C82.924,172.089 83.139,176.296 83.688,179.996 C84.933,188.407 75.353,187.8 67.525,194.808 C65.24,196.856 63.08,197.419 58.763,196.795 C46.737,195.06 41.471,180.685 41.471,180.685 C41.471,180.685 53.779,179.387 65.773,185.888 C70.637,188.521 74.209,179.267 73.562,178.608 C69.043,174.013 41.004,177.168 40.071,177.168 C39.136,177.168 38.045,170.82 38.045,167.08 C38.045,163.342 40.381,156.021 40.071,154.151 C39.759,152.282 36.954,156.644 31.815,152.071 C24.509,145.575 30.876,133.849 33.177,134.991 M124.68,446.702 C124.262,445.249 123.756,443.823 123.491,442.332 C123.198,440.854 122.748,439.41 122.526,437.917 L121.858,433.445 C121.661,431.951 121.597,430.44 121.458,428.938 C121.408,428.186 121.315,427.434 121.296,426.68 L121.304,424.411 C121.308,422.899 121.231,421.382 121.296,419.865 C121.433,418.354 121.528,416.84 121.618,415.318 C121.67,414.559 121.699,413.795 121.771,413.034 L122.105,410.768 L122.717,406.207 C123.211,403.171 123.945,400.177 124.405,397.065 C123.164,399.91 121.946,402.81 120.94,405.78 L119.705,410.325 L119.116,412.617 C118.967,413.389 118.863,414.172 118.735,414.949 C118.487,416.507 118.243,418.07 118.037,419.64 C117.881,421.214 117.866,422.801 117.775,424.384 L117.691,426.762 C117.698,427.557 117.775,428.349 117.814,429.141 C117.93,430.725 117.97,432.318 118.148,433.898 C118.964,440.211 120.706,446.414 123.44,452.143 C126.157,457.85 129.79,463.206 134.581,467.262 C130.97,462.18 128.247,456.679 126.127,451 C125.611,449.575 125.078,448.161 124.68,446.702 M126.994,383.141 C122.509,375.971 118.151,368.794 114.679,361.24 C111.221,353.7 108.522,345.83 107.303,337.72 C106.007,329.635 106.226,321.338 107.979,313.294 C108.89,309.281 110.134,305.324 111.688,301.462 C113.229,297.586 115.181,293.878 117.18,290.143 C114.501,293.412 112.083,296.929 110.035,300.683 C108.047,304.46 106.364,308.434 105.161,312.579 C102.723,320.867 102.308,329.743 103.609,338.295 C104.302,342.566 105.377,346.766 106.803,350.823 C108.278,354.868 110,358.809 112.074,362.552 C116.146,370.077 121.275,376.921 126.994,383.141 M108.591,248.304 C107.997,246.972 107.344,245.68 106.911,244.283 L106.184,242.232 C105.932,241.553 105.818,240.823 105.629,240.123 C105.464,239.417 105.263,238.72 105.079,238.017 C104.902,237.314 104.829,236.587 104.698,235.872 L104.344,233.724 C104.237,233.006 104.231,232.273 104.164,231.551 C103.635,225.762 104.124,219.886 105.437,214.169 C106.774,208.444 109.023,202.914 112.039,197.613 C107.779,201.981 104.594,207.469 102.64,213.373 C100.651,219.278 99.944,225.621 100.442,231.872 C101.008,238.108 102.787,244.299 106.026,249.689 C109.203,255.073 113.896,259.671 119.517,262.103 C114.722,258.322 111.106,253.554 108.591,248.304 M49.492,342.54 C52.465,344.766 55.934,346.307 59.517,347.011 C63.109,347.69 66.782,347.565 70.212,346.689 C66.679,346.743 63.19,346.347 59.978,345.234 C56.752,344.173 53.835,342.439 51.321,340.27 C48.834,338.062 46.724,335.435 45.04,332.539 C43.319,329.664 41.955,326.558 40.931,323.329 C38.795,316.887 37.875,310.028 37.686,303.146 C37.557,296.246 38.269,289.311 39.603,282.366 C36.787,288.859 35.202,295.932 34.78,303.092 C34.37,310.256 35.158,317.549 37.379,324.491 C38.541,327.941 40.045,331.304 42.033,334.407 C44.062,337.466 46.477,340.355 49.492,342.54 M63.077,247.445 C62.803,254.348 63.868,261.396 66.563,267.919 C67.952,271.152 69.734,274.253 71.989,277.009 C74.284,279.717 77.002,282.126 80.124,283.843 C83.216,285.604 86.649,286.693 90.11,287.117 C93.581,287.499 97.064,287.246 100.355,286.405 C96.961,286.424 93.614,286.162 90.444,285.31 C87.271,284.5 84.3,283.14 81.654,281.357 C76.345,277.775 72.449,272.419 70.006,266.471 C67.477,260.53 66.305,254.008 65.982,247.44 C65.698,240.847 66.403,234.192 67.642,227.521 C64.921,233.74 63.337,240.535 63.077,247.445 M409.928,238.952 C407.21,233.347 403.419,228.162 398.499,224.067 C403.923,227.462 408.548,232.227 412.154,237.67 C415.78,243.119 418.456,249.192 420.456,255.446 C423.995,266.616 425.477,278.318 425.829,290.01 C426.507,280.496 426.292,270.902 424.618,261.496 C423.557,255.57 421.9,249.719 419.334,244.218 C416.777,238.727 413.257,233.593 408.658,229.409 C413.789,232.916 418.141,237.644 421.578,242.965 C425.03,248.289 427.622,254.171 429.601,260.227 C433.071,270.905 434.718,282.094 435.244,293.305 C435.736,284.282 435.416,275.194 433.789,266.279 C432.74,260.527 431.147,254.844 428.741,249.46 C426.341,244.086 423.085,239.012 418.817,234.749 C423.646,238.359 427.729,243.044 431.004,248.236 C434.286,253.437 436.805,259.13 438.766,264.989 C442.169,275.162 443.909,285.815 444.63,296.528 C444.938,288.016 444.521,279.455 442.957,271.051 C441.923,265.468 440.397,259.949 438.149,254.685 C435.903,249.428 432.907,244.421 428.976,240.091 C433.501,243.795 437.318,248.428 440.428,253.496 C443.546,258.569 445.988,264.073 447.929,269.738 C451.232,279.368 453.052,289.445 453.964,299.608 C454.098,291.651 453.606,283.662 452.123,275.808 C450.082,265.026 446.318,254.252 439.135,245.432 C447.591,253.061 453.27,263.585 457.088,274.477 C460.285,283.572 462.172,293.08 463.261,302.691 C463.234,295.289 462.667,287.865 461.284,280.55 C459.28,270.087 455.774,259.662 449.294,250.772 C457.1,258.541 462.47,268.682 466.245,279.202 C466.948,281.166 467.575,283.156 468.166,285.154 C472.804,228.999 440.367,200.931 406.551,201.017 C402.985,200.904 399.448,201.186 396.063,201.728 C390.726,202.558 385.732,203.987 380.835,205.353 C371.084,208.171 361.491,210.7 351.492,211.456 C348.809,211.677 346.11,211.777 343.406,211.789 L321.402,209.762 C326.281,211.142 331.223,212.409 336.27,213.236 C341.313,214.067 346.432,214.596 351.585,214.727 C356.739,214.866 361.924,214.602 367.059,214.024 C367.154,214.015 367.248,214.001 367.344,213.991 L370.962,214.323 C371.131,218.278 379.511,223.567 393.37,237.803 C394.159,238.612 394.898,239.435 395.627,240.262 C394.537,236.167 393.072,232.169 391.095,228.394 C388.507,223.42 384.966,218.857 380.545,215.204 L381.342,215.277 C385.996,218.336 390.059,222.398 393.29,227.06 C397.267,232.751 400.079,239.223 402.103,245.873 C402.689,247.81 403.194,249.768 403.659,251.734 C405.063,254.32 406.266,256.937 407.252,259.586 C407.024,257.009 406.725,254.437 406.286,251.881 C405.196,245.603 403.406,239.413 400.515,233.681 C397.639,227.959 393.576,222.727 388.34,218.728 C394.05,222.006 398.951,226.801 402.726,232.369 C406.521,237.94 409.268,244.212 411.281,250.663 C413.299,257.128 414.586,263.804 415.374,270.517 C416.024,275.941 416.318,281.396 416.382,286.856 C417.259,276.804 417.202,266.642 415.467,256.686 C414.386,250.588 412.657,244.568 409.928,238.952 M289.383,391.179 C277.803,391.035 266.251,389.554 254.828,387.358 C243.454,385.18 232.187,382.36 220.989,379.248 C220.876,376.912 220.761,374.576 220.606,372.248 C219.831,360.081 218.561,347.922 216.439,335.894 C214.329,323.881 211.315,311.971 206.782,300.628 C202.246,289.345 196.061,278.495 187.278,270.069 C195.61,278.936 201.133,289.946 205.03,301.282 C208.916,312.671 211.276,324.524 212.743,336.452 C214.219,348.39 214.856,360.421 215.003,372.461 C215.021,373.698 215.009,374.93 215.015,376.166 C214.804,375.997 214.592,375.837 214.383,375.665 C214.751,378.246 214.945,381.08 214.992,384.113 C214.972,386.099 214.946,388.086 214.907,390.076 C213.042,434.666 185.046,512.156 174.194,516.329 C174.194,516.329 171.623,523.887 165.08,522.017 C165.067,522.678 164.854,523.217 164.521,523.67 C167.996,526.061 174.809,526.012 174.885,522.017 C181.428,523.887 183.997,516.329 183.997,516.329 C194.75,512.194 222.332,436.087 224.649,391.314 C234.239,393.075 243.88,394.606 253.599,395.682 C265.489,397.002 277.534,397.588 289.545,396.786 C297.368,396.289 305.196,395.081 312.764,393.009 C315.707,392.616 318.37,392.194 320.691,391.787 C320.741,391.331 320.792,390.872 320.851,390.416 C322.108,389.946 323.356,389.461 324.591,388.934 C335.651,384.276 345.565,377.249 353.647,368.653 C344.898,376.592 334.619,382.669 323.6,386.312 C312.581,389.998 300.948,391.36 289.383,391.179 M375.509,300.9 C376.16,297.434 376.828,293.968 377.38,290.477 C377.938,286.992 378.421,283.471 378.415,279.936 C377.499,286.927 375.565,293.688 373.733,300.488 C371.927,307.295 370.136,314.126 368.672,321.052 C365.687,334.875 363.938,349.12 364.609,363.409 C364.989,370.539 365.946,377.66 367.635,384.618 C369.386,391.549 371.691,398.376 374.92,404.761 C378.096,411.168 382.004,417.171 386.404,422.743 L389.874,426.785 C391.019,428.136 392.325,429.346 393.538,430.632 C395.923,433.247 398.702,435.465 401.314,437.818 C396.514,432.649 391.815,427.428 387.869,421.644 C383.89,415.901 380.421,409.846 377.561,403.522 C374.738,397.182 372.579,390.565 371.081,383.808 C369.553,377.055 368.651,370.159 368.341,363.228 C367.614,349.352 369.151,335.398 371.525,321.603 C372.729,314.699 374.128,307.811 375.509,300.9 M397.888,499.193 C386.982,507.605 379.973,502.894 363.11,510.723 C361.281,511.572 358.117,515.189 354.76,518.133 C353.804,519.58 353.287,520.99 355.975,521.938 C361.271,523.809 369.465,512.324 372.915,510.723 C384.352,505.414 391.256,505.867 397.915,504.086 C401.291,500.242 406.358,497.236 410.928,495.087 C414.214,488.882 415.38,478.572 415.689,469.41 C413.161,462.202 409.784,454.885 405.52,450.438 C405.52,450.438 408.792,490.782 397.888,499.193 M329.558,514.007 C329.955,514.162 330.383,514.31 330.865,514.451 C330.746,513.948 330.278,513.885 329.558,514.007 M341.478,516.309 C342.282,517.082 343.633,517.654 345.116,517.894 C346.03,516.565 347.182,515.225 346.459,514.193 C345.387,512.67 343.59,514.693 341.478,516.309 M489.941,330.957 C504.272,281.108 491.188,232.507 466.265,209.296 C450.048,194.194 423.479,190.441 392.866,190.944 C419.311,191.394 442.003,195.833 456.46,209.296 C481.385,232.507 494.468,281.108 480.138,330.957 L470.012,389.217 C470.012,389.217 484.498,414.687 481.228,437.818 C477.956,460.953 479.825,486.422 478.424,492.263 C477.022,498.105 471.18,505.115 460.197,511.189 C449.216,517.265 423.396,524.041 423.396,524.041 C423.396,524.041 423.046,524.125 422.467,524.232 C426.944,525.532 433.199,524.041 433.199,524.041 C433.199,524.041 459.021,517.265 470.002,511.189 C480.984,505.115 486.826,498.105 488.229,492.263 C489.63,486.422 487.761,460.953 491.032,437.818 C494.303,414.687 479.816,389.217 479.816,389.217 L489.941,330.957 z M99.889,509.787 C99.761,510.194 99.563,510.522 99.324,510.803 C100.255,511.327 101.087,511.531 101.564,511.607 C101.002,511.083 100.439,510.5 99.889,509.787 M151.139,87.631 C168.897,123.638 179.348,123.793 193.509,135.433 C207.015,146.533 209.712,151.503 228.715,159.602 C260.383,173.1 278.494,196.577 324.064,194.795 C285.502,193.124 267.816,172.089 238.517,159.602 C219.514,151.503 216.82,146.533 203.313,135.433 C189.151,123.793 178.7,123.638 160.944,87.631 C154.01,73.573 140.068,38.253 91.934,33.581 C88.526,33.25 85.345,33.282 82.357,33.608 C130.304,38.372 144.217,73.596 151.139,87.631 M123.861,511.699 C123.861,512.386 123.132,513.206 122.024,513.871 C122.565,513.667 122.92,513.483 123.012,513.435 C125.448,515.783 129.007,515.336 131.327,514.158 C131.298,512.998 131.414,511.833 131.716,510.695 C131.595,510.755 131.475,510.809 131.351,510.853 C130.274,512.267 127.653,514.705 123.861,511.699 M164.251,523.989 C163.383,526.627 159.549,527.589 153.899,525.009 C154.229,524.596 154.456,524.117 154.565,523.574 C157.297,525.561 162.29,525.956 164.251,523.989" fill="#FFFFFE"/>
    <path d="M82.469,110.179 C80.157,109.775 77.827,110.127 75.628,110.621 C71.204,111.645 67.056,113.253 62.801,114.336 C58.628,115.644 54.311,115.466 50.001,114.597 C47.855,114.166 45.724,113.585 43.589,112.958 C42.517,112.661 41.446,112.344 40.354,112.073 C39.806,111.941 39.253,111.812 38.674,111.774 C38.394,111.767 38.068,111.761 37.811,111.967 C37.553,112.205 37.661,112.542 37.733,112.792 C37.694,112.527 37.68,112.202 37.897,112.077 C38.103,111.961 38.385,111.997 38.643,112.053 C39.17,112.158 39.691,112.345 40.207,112.542 C41.238,112.941 42.26,113.389 43.291,113.818 C45.362,114.656 47.477,115.442 49.673,116.011 C51.858,116.612 54.129,116.971 56.437,117.049 C58.735,117.144 61.121,116.721 63.273,116.144 C67.65,114.992 71.803,113.297 75.991,112.032 C78.084,111.434 80.223,110.928 82.347,111.089 C84.48,111.172 86.513,112.248 87.971,113.961 C86.868,112 84.775,110.587 82.469,110.179 M82.469,106.131 C80.157,105.726 77.827,106.075 75.628,106.57 C71.204,107.593 67.056,109.205 62.801,110.285 C58.628,111.592 54.311,111.415 50.001,110.545 C47.855,110.117 45.724,109.533 43.589,108.908 C42.517,108.611 41.446,108.295 40.354,108.022 C39.806,107.89 39.253,107.762 38.674,107.724 C38.394,107.715 38.068,107.71 37.811,107.915 C37.553,108.154 37.661,108.494 37.733,108.742 C37.694,108.477 37.68,108.151 37.897,108.027 C38.103,107.91 38.385,107.949 38.643,108.003 C39.17,108.11 39.691,108.296 40.207,108.492 C41.238,108.892 42.26,109.338 43.291,109.769 C45.362,110.604 47.477,111.392 49.673,111.962 C51.858,112.561 54.129,112.918 56.437,112.999 C58.735,113.094 61.121,112.669 63.273,112.093 C67.65,110.942 71.803,109.248 75.991,107.982 C78.084,107.385 80.223,106.878 82.347,107.038 C84.48,107.123 86.513,108.199 87.971,109.91 C86.868,107.95 84.775,106.536 82.469,106.131 M56.903,131.474 C57.859,131.352 58.819,131.385 59.783,131.535 C60.751,131.7 61.705,131.994 62.735,132.497 C62.269,131.444 61.306,130.621 60.219,130.142 C59.125,129.639 57.89,129.497 56.702,129.615 C54.314,129.881 52.165,131.297 51.052,133.272 C52.122,132.852 53.075,132.434 54.038,132.113 C54.997,131.802 55.946,131.556 56.903,131.474 M58.062,158.474 C56.895,162.097 53.037,161.278 53.037,158.474 C53.037,155.67 49.884,152.824 47.196,153.567 C43.569,154.568 47.839,158.192 50.001,160.927 C51.597,162.948 57.673,162.367 60.476,161.784 C63.281,161.2 65.656,155.32 63.755,154.034 C61.855,152.749 59.23,154.852 58.062,158.474 M40.83,153.243 C40.997,153.82 41.22,154.357 41.458,154.885 C41.927,155.939 42.47,156.938 43.081,157.895 C43.678,158.856 44.351,159.769 45.068,160.641 C45.804,161.49 46.564,162.37 47.547,162.948 C46.824,162.097 46.314,161.119 45.782,160.158 C45.253,159.193 44.778,158.206 44.303,157.224 C43.851,156.232 43.413,155.24 43.044,154.24 C42.862,153.74 42.704,153.235 42.565,152.745 C42.433,152.233 42.309,151.766 42.359,151.426 C42.431,150.669 42.914,149.811 43.595,149.063 C44.256,148.294 45.061,147.584 45.889,146.892 C47.556,145.508 49.37,144.208 51.052,142.702 C48.95,143.509 46.918,144.439 44.999,145.672 C44.04,146.291 43.112,146.985 42.27,147.852 C41.477,148.722 40.616,149.805 40.515,151.298 C40.492,151.648 40.528,152.054 40.603,152.36 C40.675,152.655 40.733,152.966 40.83,153.243 M461.738,393.438 C457.467,388.079 452.049,383.436 445.831,380.692 C445.44,380.519 445.037,380.376 444.64,380.22 C444.064,379.993 443.494,379.752 442.908,379.56 C443.597,379.952 444.262,380.376 444.924,380.804 C445.044,380.879 445.171,380.949 445.291,381.03 C450.972,384.775 455.624,389.708 459.407,395.177 C463.682,401.424 466.937,408.344 469.232,415.56 C470.424,419.156 471.343,422.845 472.039,426.573 C472.783,430.299 473.193,434.081 473.455,437.877 C473.882,445.476 473.332,453.162 471.414,460.718 C474.813,453.674 476.271,445.703 476.372,437.812 C476.483,429.894 475.187,421.976 472.789,414.413 C470.316,406.884 466.728,399.649 461.738,393.438 M425.678,517.936 C425.678,517.936 422.322,515.127 420.416,516.215 C418.512,517.299 416.391,519.55 417.073,520.36 C417.754,521.171 415.954,522.226 419.857,521.78 C422.114,521.521 425.678,517.936 425.678,517.936 M401.314,437.818 C396.514,432.649 391.815,427.428 387.869,421.644 C383.89,415.901 380.421,409.846 377.561,403.522 C374.738,397.182 372.579,390.565 371.081,383.808 C369.552,377.055 368.651,370.159 368.341,363.228 C367.614,349.352 369.151,335.398 371.525,321.603 C372.729,314.699 374.129,307.811 375.509,300.9 C376.16,297.434 376.828,293.968 377.38,290.477 C377.938,286.992 378.421,283.471 378.415,279.936 C377.499,286.927 375.565,293.688 373.733,300.488 C371.927,307.295 370.136,314.126 368.672,321.052 C365.687,334.875 363.938,349.12 364.609,363.409 C364.989,370.539 365.946,377.66 367.635,384.618 C369.386,391.549 371.691,398.376 374.92,404.761 C378.096,411.168 382.004,417.171 386.404,422.743 L389.874,426.785 C391.019,428.136 392.326,429.346 393.538,430.632 C395.923,433.247 398.702,435.465 401.314,437.818 M367.059,214.024 C367.154,214.015 367.248,214.001 367.344,213.991 L370.962,214.323 C371.131,218.278 379.511,223.567 393.37,237.803 C394.159,238.611 394.9,239.435 395.627,240.262 C394.537,236.167 393.072,232.169 391.095,228.394 C388.507,223.42 384.966,218.857 380.545,215.204 L381.342,215.277 C385.994,218.336 390.059,222.398 393.29,227.06 C397.267,232.751 400.079,239.223 402.103,245.873 C402.689,247.81 403.194,249.768 403.659,251.734 C405.063,254.32 406.266,256.937 407.252,259.586 C407.024,257.007 406.725,254.437 406.286,251.881 C405.196,245.603 403.406,239.413 400.515,233.681 C397.639,227.959 393.576,222.727 388.34,218.728 C394.05,222.006 398.951,226.801 402.726,232.369 C406.521,237.94 409.268,244.212 411.281,250.663 C413.299,257.128 414.586,263.804 415.374,270.517 C416.024,275.941 416.318,281.396 416.382,286.856 C417.259,276.804 417.202,266.642 415.467,256.686 C414.386,250.588 412.659,244.568 409.928,238.952 C407.21,233.347 403.419,228.162 398.499,224.067 C403.923,227.462 408.548,232.227 412.156,237.668 C415.78,243.119 418.456,249.192 420.456,255.446 C423.995,266.616 425.477,278.318 425.829,290.009 C426.507,280.496 426.292,270.902 424.618,261.496 C423.557,255.57 421.9,249.718 419.334,244.218 C416.777,238.727 413.257,233.593 408.658,229.409 C413.79,232.916 418.141,237.644 421.578,242.965 C425.03,248.289 427.622,254.171 429.601,260.227 C433.071,270.905 434.718,282.094 435.244,293.305 C435.736,284.282 435.416,275.194 433.789,266.279 C432.742,260.527 431.147,254.844 428.741,249.46 C426.341,244.086 423.085,239.012 418.817,234.749 C423.646,238.359 427.729,243.044 431.004,248.236 C434.286,253.437 436.805,259.13 438.767,264.989 C442.169,275.162 443.909,285.815 444.63,296.528 C444.938,288.016 444.521,279.455 442.957,271.051 C441.923,265.468 440.399,259.949 438.149,254.685 C435.903,249.428 432.907,244.421 428.977,240.091 C433.5,243.795 437.318,248.428 440.428,253.496 C443.546,258.569 445.987,264.073 447.93,269.737 C451.232,279.368 453.052,289.445 453.964,299.608 C454.098,291.651 453.606,283.662 452.123,275.808 C450.082,265.026 446.318,254.252 439.135,245.432 C447.591,253.061 453.27,263.585 457.088,274.477 C460.285,283.572 462.174,293.08 463.261,302.691 C463.234,295.289 462.667,287.865 461.284,280.55 C459.28,270.087 455.774,259.662 449.294,250.772 C457.1,258.541 462.47,268.682 466.245,279.202 C466.946,281.166 467.575,283.156 468.166,285.154 C472.804,228.999 440.367,200.931 406.551,201.017 C402.985,200.903 399.448,201.186 396.063,201.728 C390.726,202.558 385.732,203.987 380.835,205.353 C371.084,208.171 361.491,210.7 351.492,211.456 C348.809,211.677 346.11,211.777 343.406,211.789 L321.402,209.762 C326.281,211.142 331.223,212.409 336.27,213.236 C341.312,214.067 346.432,214.596 351.585,214.727 C356.739,214.866 361.924,214.602 367.059,214.024 M289.981,214.56 L290.076,214.236 C289.027,213.972 287.981,213.686 286.94,213.387 C284.512,212.508 282.001,211.687 279.432,210.906 C268.279,206.762 257.62,200.74 247.615,193.671 C241.023,189.026 234.678,183.938 228.456,178.618 C227.895,178.138 227.336,177.638 226.773,177.155 L230.048,178.954 C237.325,182.895 244.674,186.726 252.143,190.309 C259.614,193.883 267.201,197.236 274.982,200.087 C282.759,202.902 290.753,205.341 298.97,206.262 C290.824,204.87 283.054,201.999 275.51,198.766 C267.966,195.499 260.643,191.75 253.446,187.78 C246.248,183.808 239.185,179.596 232.187,175.266 L221.716,168.702 L216.448,165.405 L213.751,163.772 C212.796,163.228 211.968,162.71 210.68,162.152 C210.502,162.079 210.294,162.002 210.023,161.921 C209.82,161.875 209.738,161.841 209.386,161.799 L209.159,161.781 C209.076,161.775 208.885,161.78 208.75,161.792 C208.585,161.809 208.491,161.816 208.276,161.865 C207.977,161.941 207.672,162.067 207.404,162.231 C207.196,162.339 206.729,162.73 206.487,163.118 C206.196,163.571 206.111,163.887 206.05,164.193 C205.981,164.475 205.984,164.958 206.005,165.061 C206.021,165.214 206.047,165.367 206.082,165.516 C206.176,165.881 206.202,165.899 206.271,166.076 C206.339,166.236 206.391,166.333 206.429,166.399 C206.524,166.577 206.605,166.705 206.669,166.8 L206.867,167.08 C207.341,167.714 207.706,168.102 208.097,168.532 C208.855,169.352 209.627,170.105 210.352,170.839 L212.879,173.42 C216.978,181.36 238.449,223.114 248.036,244.921 C248.785,246.638 249.532,248.388 250.269,250.172 C250.349,250.369 250.437,250.582 250.513,250.772 L250.54,250.826 C250.655,251.11 250.771,251.4 250.884,251.685 C250.866,251.541 250.85,251.4 250.831,251.258 C249.604,242.228 247.882,233.256 245.503,224.438 C243.606,217.543 241.309,210.743 238.353,204.202 C235.381,197.682 231.753,191.392 227.002,185.888 C232.372,190.791 236.819,196.727 240.626,203.002 C244.421,209.299 247.598,215.969 250.372,222.794 C251.225,224.916 252.025,227.058 252.805,229.207 C257.041,240.922 260.224,253.019 262.656,265.269 C264.004,272.17 265.118,279.121 265.983,286.125 C265.942,281.637 265.798,277.139 265.533,272.645 C264.681,259.041 262.825,245.429 259.358,232.178 C257.614,225.576 255.449,219.074 252.663,212.812 L252.643,212.764 C249.843,206.503 246.382,200.473 241.882,195.156 C245.882,198.843 249.36,203.111 252.428,207.671 C253.014,208.544 253.584,209.428 254.141,210.318 C254.399,210.737 254.665,211.15 254.92,211.569 C258.558,217.604 261.606,224.003 264.239,230.56 C269.473,243.696 273.117,257.441 275.735,271.377 C277.009,278.299 278.037,285.269 278.778,292.299 C278.848,287.748 278.789,283.186 278.601,278.63 C278.015,265.634 276.427,252.604 273.223,239.922 C271.62,233.584 269.575,227.345 266.939,221.333 C266.313,219.911 265.649,218.506 264.948,217.116 C262.688,212.632 260.012,208.335 256.765,204.426 C261.345,208.678 265.207,213.73 268.544,219.093 C268.764,219.447 269.005,219.787 269.218,220.144 C272.699,225.919 275.623,232.042 278.112,238.332 C283.09,250.928 286.47,264.131 288.819,277.512 C290.016,284.479 290.934,291.503 291.535,298.587 C291.733,293.946 291.774,289.282 291.673,284.622 C291.355,272.237 290.039,259.791 287.096,247.675 C285.634,241.614 283.724,235.653 281.24,229.904 C280.327,227.801 279.331,225.726 278.241,223.697 C276.355,220.187 274.185,216.82 271.646,213.695 C275.173,217.002 278.272,220.787 281.022,224.832 C281.89,226.106 282.725,227.4 283.523,228.722 C286.851,234.237 289.645,240.094 291.995,246.118 C296.717,258.178 299.831,270.841 301.91,283.671 C303.009,290.629 303.796,297.645 304.235,304.722 C304.58,300.044 304.754,295.336 304.752,290.628 C304.711,278.851 303.653,266.993 300.978,255.435 C299.646,249.657 297.885,243.962 295.549,238.477 C293.361,233.352 290.635,228.415 287.217,223.91 C286.979,223.599 286.771,223.27 286.525,222.965 C286.784,223.209 287.017,223.479 287.27,223.727 C291.337,227.734 294.84,232.36 297.835,237.301 C301.018,242.559 303.665,248.155 305.888,253.915 C310.349,265.445 313.208,277.574 315.005,289.863 C315.986,296.76 316.626,303.717 316.888,310.731 C317.39,306.065 317.706,301.357 317.832,296.641 C318.052,285.485 317.271,274.209 314.859,263.211 C312.405,252.271 308.431,241.415 301.407,232.233 C309.732,240.268 315.559,250.793 319.782,261.73 C323.987,272.736 326.569,284.34 328.099,296.089 C328.938,302.949 329.423,309.872 329.484,316.852 C330.18,312.168 330.662,307.428 330.923,302.67 C331.437,292.131 330.896,281.445 328.768,270.995 C326.582,260.598 322.836,250.302 316.288,241.502 C324.144,249.166 329.74,259.124 333.704,269.557 C337.631,280.053 339.979,291.138 341.199,302.362 C341.891,309.134 342.194,315.966 342.027,322.847 C342.941,318.202 343.604,313.472 344.02,308.713 C344.833,298.795 344.537,288.701 342.691,278.795 C340.773,268.94 337.249,259.194 331.17,250.772 C338.563,258.064 343.934,267.465 347.641,277.406 C351.163,287.051 353.237,297.237 354.188,307.558 C359.986,274.775 340.914,234.249 289.981,214.56 M205.237,196.907 C204.311,191.367 202.302,185.981 199.416,181.111 C196.586,176.192 192.817,171.845 188.567,168.063 C184.264,164.334 179.351,161.278 174.044,159.073 C168.706,156.974 162.963,155.679 157.151,155.75 C151.362,155.853 145.554,157.131 140.417,159.714 C135.25,162.228 130.745,165.854 127.08,170.063 C123.464,174.332 120.575,179.076 118.346,184.061 C121.646,179.692 125.063,175.52 129.028,171.987 C132.957,168.432 137.438,165.616 142.188,163.697 C151.723,159.846 162.516,160.287 171.942,164.269 C176.7,166.153 181.151,168.864 185.15,172.127 C189.205,175.34 192.709,179.226 195.724,183.463 C201.653,191.982 205.153,202.447 204.249,213.387 C205.891,208.157 206.109,202.447 205.237,196.907 M184.787,285.002 C187.003,291.415 188.567,297.853 189.163,304.4 C189.234,306.047 189.332,307.681 189.432,309.311 L189.286,314.217 C189.032,317.474 188.728,320.733 188.016,323.928 C187.793,325.549 187.333,327.122 186.929,328.708 C186.714,329.495 186.552,330.3 186.293,331.076 L185.508,333.403 C185.247,334.178 185.022,334.97 184.733,335.735 L183.806,338.011 C183.219,339.545 182.515,341.023 181.792,342.5 C178.852,348.345 175.35,354.092 169.926,358.16 C173.12,356.913 175.753,354.571 178.203,352.171 C180.498,349.619 182.646,346.886 184.354,343.897 C187.899,337.983 190.312,331.417 191.683,324.648 C192.95,317.871 193.302,310.839 192.046,304.037 C190.876,297.24 188.395,290.725 184.787,285.002 M181.931,407.854 C181.492,402.224 179.856,396.677 177.067,391.816 C174.312,386.943 170.513,382.753 166.093,379.56 C169.446,383.881 172.364,388.327 174.466,393.116 C176.549,397.899 177.869,402.968 178.203,408.122 C178.234,409.413 178.383,410.702 178.336,411.994 C178.25,413.281 178.263,414.582 178.104,415.867 C177.868,418.447 177.377,421.002 176.709,423.524 C175.326,428.557 173.132,433.396 169.926,437.818 C174.271,434.477 177.482,429.644 179.483,424.434 C181.519,419.203 182.309,413.489 181.931,407.854 M160.834,521.286 C161.543,520.595 162.155,519.011 161.534,516.825 C161.265,515.878 161.044,515.762 161.043,515.76 C160.941,515.794 160.618,515.926 160.421,516.027 C159.677,516.417 158.436,517.064 156.988,515.94 C156.89,515.866 156.67,515.711 156.499,515.711 L156.399,515.734 C156.167,515.864 155.888,516.504 155.99,517.531 C156.148,519.076 157.141,520.987 159.45,521.709 C160.067,521.905 160.586,521.528 160.834,521.286 M168.309,519.436 C169.02,518.744 169.63,517.16 169.009,514.973 C168.744,514.046 168.528,513.936 168.528,513.935 C168.422,513.93 168.081,514.106 167.875,514.216 C167.119,514.62 165.854,515.294 164.434,514.067 L164.434,514.065 C163.851,513.56 163.473,513.429 163.289,513.429 L163.192,513.447 C163.057,513.516 162.867,513.918 162.933,514.707 C163.063,516.254 164.26,519.022 166.927,519.857 C167.558,520.055 168.061,519.677 168.309,519.436 M150.522,522.202 C151.232,521.51 151.84,519.927 151.219,517.741 C150.954,516.812 150.739,516.704 150.738,516.703 C150.636,516.718 150.294,516.872 150.087,516.983 C149.331,517.387 148.065,518.064 146.647,516.837 L146.647,516.835 C146.063,516.327 145.686,516.196 145.501,516.196 L145.405,516.216 C145.271,516.283 145.08,516.685 145.147,517.475 C145.277,519.022 146.475,521.792 149.14,522.626 C149.769,522.824 150.272,522.445 150.522,522.202 M133.244,502.665 C133.069,501.313 132.788,501.117 132.785,501.116 C132.658,501.073 132.131,501.259 131.818,501.369 C130.676,501.776 128.763,502.458 127.038,500.448 L127.037,500.447 C126.264,499.544 125.735,499.312 125.503,499.312 L125.43,499.323 C125.227,499.393 124.879,499.916 124.806,501.032 C124.667,503.226 125.77,507.344 129.321,509.063 C130.155,509.468 130.945,509.044 131.344,508.759 C132.48,507.937 133.662,505.848 133.244,502.665 M100.588,500.698 C100.915,499.894 101.412,499.31 102.084,499.086 C102.856,498.827 104.114,498.91 105.705,500.765 L105.705,500.768 C106.553,501.753 107.26,501.561 108.437,501.144 L108.611,501.087 C109.912,498.891 109.747,493.731 105.217,491.215 C102.764,489.853 99.154,492.861 99.55,498.268 C99.672,499.926 100.047,500.543 100.588,500.698 M100.354,286.405 C96.961,286.424 93.612,286.162 90.442,285.31 C87.271,284.5 84.3,283.14 81.652,281.357 C76.345,277.775 72.449,272.419 70.006,266.471 C67.476,260.53 66.305,254.008 65.983,247.44 C65.698,240.847 66.403,234.192 67.643,227.521 C64.921,233.74 63.337,240.535 63.077,247.445 C62.803,254.348 63.868,261.396 66.561,267.918 C67.952,271.152 69.734,274.253 71.989,277.009 C74.283,279.717 77.002,282.126 80.124,283.843 C83.216,285.604 86.649,286.693 90.111,287.117 C93.58,287.499 97.064,287.246 100.354,286.405 M98.708,500.561 C98.612,497.844 97.279,494.353 94.137,492.61 C91.984,491.414 88.94,493.588 88.498,497.794 C88.637,497.71 88.764,497.603 88.919,497.549 C89.69,497.295 90.947,497.374 92.539,499.232 C93.386,500.221 94.094,500.029 95.272,499.61 C96.075,499.32 96.987,498.995 97.842,499.521 C98.204,499.742 98.488,500.082 98.708,500.561 M97.326,502.665 C97.149,501.313 96.869,501.117 96.866,501.116 C96.731,501.067 96.211,501.259 95.899,501.369 C94.757,501.776 92.844,502.456 91.12,500.448 C90.343,499.544 89.814,499.312 89.584,499.312 L89.51,499.323 C89.309,499.393 88.961,499.916 88.889,501.034 C88.746,503.226 89.848,507.344 93.4,509.063 C94.235,509.465 95.024,509.043 95.424,508.759 C96.559,507.937 97.741,505.851 97.326,502.665 M84.466,444.362 C77.478,439.807 71.934,433.644 66.984,427.156 C64.558,423.866 62.238,420.499 60.199,416.966 C58.118,413.463 56.242,409.838 54.638,406.105 C52.977,402.397 51.605,398.568 50.523,394.668 C49.401,390.776 48.683,386.783 48.296,382.762 C47.57,374.722 48.683,366.457 52.221,358.878 C47.312,365.679 45.16,374.414 45.393,382.916 C45.564,391.472 47.864,399.837 51.216,407.607 C54.651,415.363 59.194,422.595 64.713,428.987 C67.459,432.19 70.475,435.165 73.73,437.842 C77.02,440.463 80.579,442.822 84.466,444.362 M42.033,334.407 C44.062,337.466 46.477,340.355 49.492,342.54 C52.465,344.766 55.934,346.307 59.517,347.011 C63.109,347.69 66.781,347.565 70.212,346.689 C66.679,346.743 63.19,346.347 59.976,345.234 C56.753,344.173 53.836,342.439 51.321,340.27 C48.832,338.062 46.724,335.435 45.038,332.539 C43.319,329.664 41.955,326.558 40.929,323.329 C38.794,316.887 37.875,310.028 37.686,303.146 C37.557,296.246 38.269,289.311 39.603,282.366 C36.786,288.859 35.202,295.932 34.778,303.092 C34.369,310.256 35.158,317.549 37.379,324.491 C38.541,327.941 40.045,331.304 42.033,334.407 M86.959,129.923 C87.022,128.147 86.558,126.273 85.468,124.709 C84.4,123.129 82.721,121.981 80.922,121.382 C79.108,120.805 77.183,120.705 75.364,121.077 C73.563,121.439 71.786,122.256 70.603,123.619 C72.237,122.895 73.894,122.599 75.544,122.519 C77.19,122.468 78.828,122.641 80.336,123.156 C81.853,123.638 83.222,124.476 84.333,125.628 C85.448,126.789 86.253,128.272 86.959,129.923 M76.522,128.439 C77.124,128.439 77.611,127.952 77.611,127.349 C77.611,126.748 77.124,126.261 76.522,126.261 C75.919,126.261 75.431,126.748 75.431,127.349 C75.431,127.952 75.919,128.439 76.522,128.439 M74.809,133.272 C76.256,135.081 78.527,136.187 80.922,136.344 C82.118,136.398 83.346,136.23 84.449,135.725 C85.528,135.243 86.61,134.432 86.959,133.272 C85.998,133.918 85.004,134.141 84.014,134.333 C83.02,134.493 82.023,134.555 81.024,134.479 C80.022,134.438 79.024,134.259 78.001,134.058 C76.969,133.853 75.957,133.518 74.809,133.272 M32.593,131.721 C33.268,132.722 34.094,133.609 35.108,134.295 C36.102,134.999 37.282,135.53 38.594,135.701 C39.904,135.852 41.282,135.555 42.366,134.917 C43.457,134.28 44.305,133.448 45.055,132.497 C43.874,132.803 42.808,133.277 41.787,133.579 C40.758,133.856 39.793,133.979 38.809,133.847 C37.822,133.752 36.825,133.4 35.798,133.016 C34.764,132.632 33.747,132.116 32.593,131.721 M37.733,126.261 C37.131,126.261 36.643,126.748 36.643,127.349 C36.643,127.952 37.131,128.439 37.733,128.439 C38.336,128.439 38.824,127.952 38.824,127.349 C38.824,126.748 38.336,126.261 37.733,126.261 M40.422,121.745 C41.644,122.065 42.779,122.673 43.77,123.497 C44.756,124.332 45.564,125.417 46.24,126.735 C46.333,125.262 45.812,123.709 44.826,122.491 C43.853,121.251 42.44,120.376 40.918,119.942 C39.389,119.538 37.721,119.561 36.247,120.156 C34.774,120.721 33.526,121.893 33.06,123.309 C34.179,122.34 35.405,121.779 36.664,121.548 C37.923,121.329 39.21,121.393 40.422,121.745 M40.071,154.151 C40.381,156.021 38.045,163.342 38.045,167.08 C38.045,170.82 39.136,177.168 40.071,177.168 C41.005,177.168 69.042,174.013 73.562,178.608 C74.209,179.267 70.637,188.521 65.773,185.888 C53.779,179.387 41.472,180.685 41.472,180.685 C41.472,180.685 46.737,195.06 58.764,196.795 C63.08,197.419 65.24,196.856 67.525,194.808 C75.353,187.8 84.934,188.407 83.688,179.995 C83.139,176.296 82.924,172.089 83.224,168.322 C83.172,168.173 83.127,168.019 83.075,167.872 C82.183,165.373 81.065,162.986 79.648,160.778 C77.22,156.876 73.94,153.567 70.537,150.266 C70.9,150.722 71.25,151.193 71.585,151.685 C71.91,152.191 72.218,152.715 72.483,153.294 C72.73,153.88 73.012,154.502 72.956,155.387 C72.714,156.92 71.896,157.879 71.109,158.776 C69.481,160.522 67.587,161.873 65.54,162.948 C67.12,161.277 68.712,159.637 69.992,157.87 C70.595,156.999 71.189,156.015 71.209,155.253 C71.192,154.644 70.621,153.561 70.031,152.716 C68.826,150.913 67.344,149.21 65.868,147.519 C64.342,145.869 62.886,144.129 61.1,142.702 C63.318,143.473 65.154,144.989 66.901,146.481 C67.834,147.306 68.721,148.181 69.556,149.114 C71.773,150.348 73.869,151.81 75.79,153.499 C77.869,155.311 79.72,157.426 81.229,159.783 C82.23,161.382 83.051,163.098 83.687,164.87 C84.307,161.645 85.443,159.09 87.271,158.045 C91.631,155.554 100.978,151.503 98.797,140.6 C96.618,129.694 97.875,130.933 99.122,122.997 C100.131,116.568 99.755,99.728 79.505,102.843 C59.253,105.958 60.571,112.716 46.24,104.616 C40.631,101.188 33.529,97.864 29.635,110.248 C27.467,117.142 31.191,122.84 31.191,122.84 C31.191,122.84 31.815,113.183 43.029,119.414 C47.136,121.695 48.878,124.398 49.442,126.912 C49.522,126.236 49.572,125.556 49.57,124.868 C49.554,123.403 49.376,121.894 48.677,120.541 C49.646,121.727 50.17,123.251 50.499,124.767 C50.739,125.898 50.831,127.059 50.86,128.227 C53.71,126.191 58.392,125.066 67.551,129.42 C67.38,128.625 67.282,127.836 67.218,127.05 C67.127,125.892 67.108,124.739 67.163,123.595 C67.216,122.448 67.32,121.311 67.51,120.185 C67.609,119.623 67.721,119.061 67.888,118.513 C68.054,117.989 68.231,117.366 68.718,117.053 C68.287,117.427 68.208,118.029 68.115,118.565 C68.028,119.117 67.995,119.676 67.974,120.231 C67.958,120.877 67.973,121.522 68.004,122.167 C69.442,118.711 74.879,115.734 82.44,120.347 C91.631,125.956 94.435,134.68 87.582,137.172 C80.729,139.664 74.809,137.482 71.381,134.991 C70.95,134.679 70.569,134.273 70.231,133.809 C70.226,134.347 70.207,134.878 70.164,135.402 C70.111,136.224 69.993,137.064 70.085,137.717 C70.146,138.348 70.606,138.721 71.341,138.991 C72.837,139.507 74.461,139.878 76.052,140.234 C77.654,140.584 79.266,140.898 80.884,141.184 C79.244,141.052 77.608,140.893 75.975,140.695 C74.333,140.486 72.717,140.281 71.058,139.882 C70.634,139.76 70.18,139.623 69.768,139.283 C69.357,138.963 69.04,138.445 68.943,137.962 C68.726,136.998 68.798,136.18 68.762,135.365 C68.75,134.183 68.599,133.044 68.378,131.922 C55.569,125.267 51.988,129.302 49.573,132.032 C49.477,132.141 49.387,132.238 49.295,132.344 C48.996,133.399 48.726,134.482 48.339,135.582 C47.922,136.748 47.255,138.05 46.077,138.756 C44.922,139.454 43.644,139.609 42.436,139.651 C41.214,139.701 40.015,139.561 38.824,139.43 C40.023,139.405 41.227,139.388 42.392,139.187 C43.549,139.003 44.704,138.67 45.535,137.995 C46.193,137.469 46.561,136.713 46.811,135.88 C44.972,137.061 40.624,138.686 33.177,134.991 C30.876,133.849 24.509,145.575 31.815,152.071 C36.955,156.644 39.759,152.282 40.071,154.151 M12.276,216.727 C12.731,211.972 13.659,207.262 15.146,202.746 C16.665,198.254 18.765,193.927 21.75,190.215 C24.689,186.465 28.582,183.445 33.06,181.425 C28.299,182.666 23.88,185.383 20.382,189.003 C16.885,192.642 14.264,197.073 12.417,201.75 C8.696,211.153 7.82,221.338 8.207,231.26 C8.727,241.206 10.706,251.075 14.323,260.359 C16.138,264.989 18.417,269.476 21.378,273.512 C22.828,275.546 24.587,277.371 26.466,279.011 C28.442,280.551 30.65,281.826 33.06,282.366 C30.766,281.443 28.865,279.92 27.168,278.249 C25.576,276.45 24.074,274.588 22.901,272.486 C20.419,268.39 18.585,263.916 17.066,259.365 C15.601,254.789 14.396,250.122 13.576,245.385 C12.713,240.658 12.12,235.872 11.938,231.077 C11.68,226.285 11.79,221.48 12.276,216.727 M38.824,85.142 C39.854,84.424 41.137,84.78 42.21,85.155 C43.321,85.537 44.378,86.092 45.386,86.716 C47.397,87.976 49.298,89.425 51.04,91.04 C52.796,92.642 54.402,94.409 55.777,96.338 C57.13,98.269 58.269,100.421 58.529,102.843 C58.743,100.385 57.756,97.957 56.503,95.866 C55.245,93.739 53.596,91.884 51.804,90.211 C49.989,88.56 48.002,87.085 45.811,85.957 C44.713,85.405 43.571,84.916 42.363,84.621 C41.76,84.48 41.128,84.413 40.505,84.445 C39.889,84.468 39.226,84.668 38.824,85.142 M39.649,66.666 C42.446,67.123 44.957,68.447 47.024,70.25 C49.073,72.087 50.811,74.259 52.284,76.607 C53.789,78.939 55.051,81.43 56.242,83.96 C57.448,86.487 58.418,89.124 59.621,91.685 L58.448,87.62 C58.017,86.276 57.545,84.942 57.038,83.62 C56.021,80.975 54.76,78.414 53.236,76 C51.702,73.6 49.859,71.344 47.575,69.577 C46.422,68.712 45.169,67.974 43.831,67.452 C42.482,66.962 41.065,66.658 39.649,66.666 M46.24,54.075 C47.523,53.97 48.726,54.456 49.643,55.255 C50.59,56.024 51.341,57.024 51.991,58.076 C53.284,60.19 54.276,62.504 55.154,64.85 C56.045,67.198 56.791,69.608 57.538,72.019 C58.264,74.44 58.936,76.881 59.621,79.332 C59.394,76.792 58.931,74.286 58.374,71.8 C57.821,69.31 57.093,66.858 56.209,64.455 C55.291,62.07 54.244,59.694 52.711,57.589 C51.939,56.548 51.067,55.548 49.969,54.807 C48.874,54.095 47.481,53.706 46.24,54.075 M55.492,46.043 C56.011,46.201 56.297,46.681 56.55,47.121 C56.798,47.578 56.994,48.063 57.172,48.555 C57.55,49.529 57.857,50.537 58.131,51.554 C58.681,53.589 59.207,55.633 59.693,57.69 L61.199,63.862 C61.713,65.92 62.219,67.98 62.814,70.033 C62.678,67.9 62.384,65.789 62.047,63.689 C61.72,61.583 61.281,59.5 60.79,57.425 C60.274,55.357 59.714,53.292 58.957,51.284 C58.577,50.283 58.17,49.288 57.676,48.326 C57.415,47.853 57.134,47.388 56.798,46.954 C56.482,46.538 56.047,46.075 55.492,46.043 M65.285,49.502 C65.472,52.224 65.898,54.914 66.554,57.543 C67.198,60.17 67.989,62.763 69.045,65.25 C68.434,62.623 67.862,60.002 67.4,57.365 C66.954,54.727 66.565,52.086 66.412,49.434 C66.252,46.791 66.294,44.122 66.89,41.576 C67.456,39.051 68.887,36.613 71.381,35.451 C70.075,35.81 68.885,36.618 67.973,37.667 C67.076,38.739 66.472,40.026 66.054,41.342 C65.214,43.999 65.147,46.788 65.285,49.502 M71.65,66.347 C72.181,63.558 72.754,60.792 73.423,58.055 C74.117,55.324 74.842,52.603 75.784,49.965 C76.692,47.319 77.806,44.742 79.228,42.351 C80.674,40 82.515,37.789 85.09,36.539 C83.715,36.928 82.468,37.716 81.359,38.636 C80.272,39.588 79.335,40.701 78.501,41.875 C76.847,44.247 75.67,46.898 74.718,49.593 C73.783,52.298 73.077,55.071 72.577,57.873 C72.079,60.677 71.716,63.505 71.65,66.347 M92.814,44.46 C89.915,46.037 87.278,48.106 85.007,50.504 C82.771,52.934 80.79,55.605 79.232,58.503 C77.687,61.404 76.422,64.466 75.723,67.662 C76.302,66.137 76.914,64.632 77.663,63.192 C78.358,61.728 79.145,60.315 79.982,58.935 C81.668,56.185 83.584,53.578 85.824,51.281 C86.893,50.078 88.105,49.028 89.315,47.974 C89.931,47.458 90.604,47.021 91.247,46.54 L92.222,45.833 L93.252,45.21 C93.943,44.805 94.617,44.358 95.328,43.979 L97.523,42.961 C98.238,42.572 99.002,42.306 99.77,42.047 C100.537,41.782 101.302,41.501 102.069,41.214 C98.886,41.863 95.671,42.779 92.814,44.46 M105.001,48.439 C100.901,49.02 97.21,51.017 93.869,53.274 C90.569,55.633 87.565,58.363 84.852,61.34 C82.154,64.328 79.635,67.492 77.611,70.967 C78.813,69.359 80.07,67.806 81.402,66.317 C82.71,64.807 84.065,63.341 85.479,61.936 C88.292,59.124 91.239,56.425 94.515,54.199 C97.729,51.92 101.287,50.018 105.138,49.298 C108.977,48.516 113.083,49.538 116.244,52.039 C114.807,50.64 113.042,49.545 111.098,48.9 C109.143,48.279 107.035,48.165 105.001,48.439 M118.346,65.554 C116.707,64.148 114.774,63.075 112.708,62.359 C110.63,61.672 108.421,61.386 106.229,61.427 C101.822,61.534 97.556,62.928 93.648,64.828 C89.767,66.814 86.141,69.276 82.896,72.162 C79.722,75.075 76.591,78.261 74.809,82.231 C75.854,80.342 77.261,78.706 78.745,77.169 C80.217,75.617 81.801,74.169 83.459,72.817 C86.769,70.12 90.317,67.695 94.148,65.838 C97.93,63.904 102.046,62.573 106.265,62.294 C110.477,61.988 114.785,63.099 118.346,65.554 M117.413,80.547 C115.898,78.988 114.192,77.558 112.224,76.55 L110.744,75.805 L109.18,75.252 C108.148,74.832 107.056,74.648 105.97,74.411 C101.599,73.595 97.067,74.083 92.828,75.292 C88.595,76.574 84.604,78.576 81.018,81.109 C77.428,83.644 74.195,86.641 71.381,89.971 C74.534,86.96 77.871,84.169 81.499,81.828 C85.122,79.493 89.009,77.531 93.146,76.375 C97.243,75.118 101.599,74.657 105.835,75.268 C110.062,75.86 114.142,77.649 117.413,80.547 M100.678,88.556 C104.476,89.208 108.155,91.137 110.401,94.455 C109.479,92.697 108.076,91.183 106.414,90.035 C104.736,88.909 102.819,88.167 100.856,87.703 C96.898,86.811 92.811,87.066 88.871,87.69 C84.937,88.423 81.095,89.602 77.447,91.214 C75.63,92.033 73.852,92.944 72.157,93.997 C70.503,95.087 68.827,96.25 67.618,97.839 C69.013,96.428 70.706,95.395 72.437,94.472 C74.159,93.532 75.953,92.722 77.782,92.011 C81.438,90.596 85.204,89.426 89.065,88.804 C92.902,88.107 96.856,87.871 100.678,88.556 M119.517,262.103 C114.722,258.322 111.106,253.554 108.591,248.304 C107.998,246.972 107.344,245.68 106.911,244.283 L106.184,242.232 C105.932,241.553 105.817,240.823 105.627,240.123 C105.464,239.417 105.263,238.72 105.079,238.017 C104.902,237.314 104.829,236.587 104.698,235.872 L104.344,233.724 C104.237,233.006 104.231,232.273 104.165,231.551 C103.635,225.762 104.123,219.885 105.437,214.169 C106.776,208.444 109.023,202.914 112.039,197.613 C107.779,201.981 104.594,207.469 102.64,213.373 C100.653,219.278 99.944,225.619 100.442,231.872 C101.008,238.108 102.789,244.299 106.026,249.689 C109.203,255.073 113.896,259.671 119.517,262.103 M126.994,383.141 C122.509,375.971 118.151,368.794 114.681,361.24 C111.221,353.7 108.522,345.83 107.303,337.72 C106.005,329.635 106.223,321.338 107.979,313.294 C108.89,309.281 110.134,305.324 111.688,301.462 C113.229,297.586 115.181,293.878 117.18,290.143 C114.501,293.412 112.083,296.929 110.035,300.683 C108.047,304.46 106.364,308.434 105.161,312.579 C102.724,320.867 102.308,329.743 103.609,338.295 C104.302,342.566 105.376,346.766 106.804,350.823 C108.279,354.868 110,358.809 112.074,362.552 C116.146,370.077 121.275,376.921 126.994,383.141 M134.581,467.262 C130.97,462.18 128.247,456.679 126.127,451 C125.611,449.575 125.078,448.161 124.677,446.702 C124.262,445.249 123.756,443.823 123.491,442.332 C123.198,440.854 122.748,439.41 122.526,437.917 L121.858,433.445 C121.661,431.951 121.597,430.44 121.458,428.938 C121.408,428.186 121.315,427.434 121.298,426.68 L121.304,424.411 C121.308,422.899 121.231,421.38 121.298,419.865 C121.433,418.354 121.528,416.84 121.618,415.318 C121.67,414.559 121.699,413.795 121.772,413.033 L122.105,410.768 L122.717,406.207 C123.211,403.171 123.945,400.177 124.405,397.065 C123.164,399.91 121.945,402.81 120.94,405.78 L119.705,410.325 L119.116,412.617 C118.967,413.389 118.863,414.172 118.735,414.949 C118.487,416.507 118.243,418.07 118.038,419.64 C117.881,421.214 117.865,422.8 117.772,424.384 L117.692,426.762 C117.698,427.557 117.775,428.349 117.816,429.141 C117.93,430.725 117.97,432.318 118.148,433.898 C118.964,440.211 120.708,446.414 123.44,452.143 C126.157,457.85 129.79,463.206 134.581,467.262 M110.491,504.197 C110.315,502.849 110.035,502.65 110.031,502.65 C109.896,502.604 109.377,502.794 109.066,502.904 C107.921,503.315 106.01,503.997 104.284,501.982 C103.508,501.076 102.981,500.849 102.749,500.849 L102.676,500.858 C102.474,500.927 102.125,501.448 102.054,502.566 C101.913,504.76 103.014,508.879 106.567,510.598 C107.402,511.002 108.191,510.579 108.588,510.291 C109.727,509.471 110.905,507.384 110.491,504.197 M113.147,501.799 C113.521,501.088 114.038,500.575 114.658,500.344 C115.195,500.141 116.271,499.988 117.442,501.215 C118.357,502.172 119.11,501.975 120.26,501.572 C120.652,501.436 121.069,501.291 121.495,501.242 C121.708,498.449 120.455,494.316 116.942,492.364 C114.489,491.004 110.88,494.011 111.275,499.416 C111.449,501.787 112.171,502.006 113.147,501.799 M122.263,504.685 C122.082,503.307 121.803,503.098 121.8,503.096 C121.673,503.062 121.17,503.235 120.876,503.337 C119.755,503.728 117.881,504.38 116.091,502.505 C115.96,502.368 115.652,502.076 115.407,502.076 L115.313,502.094 C114.961,502.227 114.437,503.065 114.368,504.519 C114.266,506.714 115.257,509.591 118.337,511.083 C119.174,511.485 119.964,511.064 120.36,510.778 C121.498,509.957 122.679,507.87 122.263,504.685 M134.063,499.783 C133.413,497.791 132.117,495.819 129.998,494.643 C128.284,493.689 126.008,494.881 124.927,497.53 C125.704,497.307 126.927,497.445 128.459,499.232 C129.304,500.221 130.013,500.03 131.189,499.61 C131.994,499.32 132.904,498.995 133.761,499.521 C133.874,499.591 133.966,499.69 134.063,499.783 M140.629,522.871 C141.338,522.179 141.948,520.595 141.328,518.41 C141.062,517.483 140.846,517.373 140.844,517.372 C140.732,517.382 140.399,517.543 140.195,517.653 C139.438,518.056 138.173,518.735 136.753,517.501 C136.171,516.995 135.793,516.866 135.609,516.866 L135.511,516.882 C135.377,516.951 135.187,517.354 135.253,518.143 C135.383,519.693 136.581,522.46 139.246,523.294 C139.878,523.493 140.381,523.114 140.629,522.871 M408.879,515.279 C407.112,516.445 404.886,517.994 405.569,518.805 C406.249,519.615 404.659,521.646 408.563,521.2 C410.819,520.943 413.009,518.64 414.078,517.265 C415.146,515.888 410.646,514.109 408.879,515.279 M404.273,505.964 C403.262,505.652 403.496,503.081 400.457,505.574 C398.702,507.016 395.746,510.522 397.42,511.422 C399.095,512.325 403.223,509.475 403.223,509.475 C403.223,509.475 405.287,506.275 404.273,505.964 M400.263,512.885 C398.118,514.182 395.819,515.673 396.501,516.483 C397.183,517.296 395.424,518.978 399.329,518.531 C401.584,518.272 403.407,515.853 404.157,514.752 C404.906,513.653 402.407,511.587 400.263,512.885 M337.305,508.882 C337.305,508.882 333.678,511.917 334.358,512.728 C335.04,513.539 333.45,515.57 337.354,515.124 C339.611,514.865 340.836,513.646 341.672,511.249 C342.506,508.85 337.305,508.882 337.305,508.882 M324.265,505.99 C322.467,507.217 320.458,508.872 320.339,509.924 C320.146,511.628 320.651,512.84 324.556,512.394 C326.812,512.136 327.956,509.906 328.47,508.882 C328.982,507.855 326.061,504.763 324.265,505.99 M318.052,502.232 C317.936,501.375 317.273,499.352 314.236,501.844 C312.479,503.284 312.133,505.074 312.289,506.788 C312.444,508.503 316.571,507.617 317.233,506.633 C317.898,505.649 318.195,503.282 318.052,502.232 M470.012,389.217 C470.012,389.217 484.498,414.687 481.228,437.818 C477.956,460.953 479.825,486.422 478.424,492.263 C477.022,498.105 471.18,505.115 460.197,511.189 C449.216,517.265 423.395,524.041 423.395,524.041 C423.395,524.041 423.046,524.125 422.467,524.232 C420.109,524.675 413.804,525.569 410.428,523.223 C409.01,522.24 403.066,523.574 402.015,521.47 C400.965,519.368 395.435,521.587 393.799,519.522 C392.163,517.459 395.824,513.761 395.356,513.293 C394.889,512.825 394.07,511.773 394.421,510.372 C394.996,508.076 396.252,505.981 397.915,504.086 C401.291,500.242 406.358,497.236 410.928,495.087 C416.548,492.444 421.409,491.094 421.409,491.094 C421.409,491.094 419.535,480.377 415.689,469.41 C413.162,462.202 409.784,454.885 405.52,450.438 C405.52,450.438 408.792,490.782 397.888,499.193 C386.982,507.605 379.973,502.894 363.11,510.721 C361.281,511.572 358.117,515.189 354.76,518.133 C351.784,520.74 348.658,522.817 346.17,521.938 C343.335,520.938 344.067,519.425 345.116,517.894 C346.03,516.565 347.182,515.225 346.458,514.193 C345.387,512.67 343.59,514.693 341.478,516.309 C340.517,517.044 339.492,517.692 338.44,517.887 C335.073,518.511 330.903,516.953 330.903,514.736 C330.903,514.624 330.886,514.536 330.865,514.451 C330.746,513.946 330.278,513.885 329.558,514.007 C327.987,514.278 325.213,515.417 322.18,514.736 C316.262,513.409 315.975,510.746 315.975,510.746 L310.186,509.555 C310.186,509.555 307.265,506.397 311.898,501.063 C321.246,487.045 341.23,486.877 338.114,470.679 C335.063,454.807 317.035,425.343 320.691,391.787 C320.741,391.331 320.792,390.872 320.851,390.416 C322.106,389.946 323.358,389.461 324.591,388.934 C335.651,384.276 345.565,377.249 353.647,368.653 C344.898,376.592 334.619,382.669 323.6,386.312 C312.581,389.998 300.948,391.358 289.383,391.179 C277.802,391.035 266.251,389.554 254.828,387.358 C243.456,385.18 232.188,382.36 220.99,379.246 C220.876,376.912 220.761,374.576 220.606,372.248 C219.831,360.081 218.558,347.922 216.44,335.894 C214.329,323.881 211.315,311.971 206.782,300.628 C202.246,289.345 196.061,278.495 187.278,270.069 C195.61,278.936 201.133,289.945 205.03,301.282 C208.916,312.671 211.276,324.523 212.743,336.452 C214.219,348.39 214.854,360.421 215.003,372.461 C215.021,373.698 215.009,374.93 215.015,376.166 C214.806,375.997 214.592,375.837 214.383,375.665 C214.751,378.246 214.945,381.08 214.993,384.113 C214.972,386.099 214.946,388.086 214.907,390.076 C213.042,434.666 185.046,512.156 174.19,516.329 C174.19,516.329 171.623,523.887 165.08,522.016 C165.067,522.678 164.855,523.217 164.521,523.67 C164.437,523.78 164.351,523.891 164.251,523.989 C162.29,525.956 157.297,525.561 154.565,523.574 C154.456,524.117 154.229,524.596 153.899,525.009 C152.349,526.956 148.445,527.275 143.07,524.516 C139.021,528.255 134.625,524.774 134.625,524.774 C134.625,524.774 131.47,519.607 131.327,514.158 C131.297,512.998 131.414,511.833 131.717,510.695 C131.595,510.755 131.475,510.808 131.351,510.853 C130.274,512.267 127.653,514.705 123.858,511.699 C123.858,512.386 123.132,513.206 122.025,513.871 C119.743,515.248 115.828,515.963 113.207,513.435 C112.783,513.647 107.044,516.724 101.566,511.607 C101.002,511.083 100.439,510.5 99.888,509.787 C99.761,510.194 99.563,510.522 99.324,510.803 C97.368,513.133 92.177,511.657 92.177,511.657 C92.177,511.657 82.909,511.346 85.245,495.456 C87.582,479.568 71.381,464.923 48.95,429.876 C26.517,394.824 34.617,352.453 34.617,352.453 C34.617,352.453 22.314,322.309 5.488,261.243 C-11.335,200.178 14.679,168.95 27.765,167.703 C20.441,156.021 21.5,142.702 27.453,135.459 C21.845,119.568 27.453,110.222 28.386,102.278 C29.321,94.333 33.995,28.908 82.128,33.581 L82.357,33.608 C130.304,38.372 144.217,73.596 151.14,87.631 C168.897,123.638 179.348,123.793 193.509,135.433 C207.015,146.533 209.709,151.503 228.715,159.602 C260.383,173.1 278.493,196.577 324.064,194.795 C326.382,194.703 328.749,194.568 331.216,194.342 C352.609,192.38 373.719,190.617 392.866,190.944 C419.311,191.394 442.003,195.833 456.46,209.296 C481.383,232.507 494.468,281.108 480.138,330.957 L470.012,389.217 z M208.638,167.455 L208.655,167.463 L208.559,167.438 L208.638,167.455" fill="#0B0B09"/>
  </g>
</svg>
