<svg width="270" height="270" viewBox="0 0 270 270" fill="none" xmlns="http://www.w3.org/2000/svg">
<g clip-path="url(#clip0_2_44)">
<rect width="270" height="270" rx="47" fill="#FF870F"/>
<path d="M24.2045 131.425C20.2975 137.722 20.1913 145.824 23.5967 154.038C27.0002 162.248 33.8532 170.363 43.4317 176.306C53.0103 182.249 63.3247 184.785 72.1918 184.189C81.0641 183.592 88.276 179.899 92.183 173.602C96.09 167.305 96.1963 159.203 92.7909 150.989C89.3874 142.779 82.5344 134.664 72.9558 128.721C63.3773 122.778 53.0629 120.242 44.1957 120.838C35.3235 121.435 28.1116 125.128 24.2045 131.425Z" fill="#F8EDD5" stroke="black" stroke-width="5"/>
<path d="M55.3708 139.21C36.5702 138.834 39.7685 146.863 46.4194 161.752L55.3708 139.21Z" fill="#F7C7F1" stroke="black" stroke-width="2"/>
<path d="M253.354 142.182C255.115 149.38 252.704 157.115 246.919 163.869C241.137 170.618 232.105 176.208 221.156 178.888C210.207 181.567 199.614 180.78 191.369 177.463C183.119 174.144 177.408 168.397 175.647 161.198C173.885 154 176.297 146.265 182.082 139.512C187.863 132.762 196.895 127.172 207.844 124.493C218.794 121.813 229.386 122.601 237.631 125.917C245.881 129.236 251.592 134.984 253.354 142.182Z" fill="#F8EDD5" stroke="black" stroke-width="5"/>
<path d="M59.5972 227.9C24.8549 204.706 28.5972 192.9 45.5972 162.9C62.5972 132.9 47.6391 96.4634 62.0972 66.4003C72 52.0419 81.9955 55.6001 91.5 52.0419C102.5 27.4118 174 8.50003 143 47C156.383 36.5098 169.161 38.4556 171.5 54.1428C173.5 42.6019 200.873 51.5 214 71.5C227.127 91.5 219.401 121.451 223 135.258C227 150.602 227.953 150 230 157.602C244 209.602 248 222.4 221.097 222.4C247 222.4 263.988 237.849 271.5 245.412L158.5 365.412L-1 270.412C18.4074 245.715 31.1057 235.325 59.5972 227.9Z" fill="#5C3D2A"/>
<path d="M59.5972 227.9C24.8549 204.706 28.5972 192.9 45.5972 162.9C62.5972 132.9 47.6391 96.4634 62.0972 66.4003C72 52.0419 81.9955 55.6001 91.5 52.0419M59.5972 227.9C124.663 270.475 171.5 252.102 221.097 222.4M59.5972 227.9C31.1057 235.325 18.4074 245.715 -1 270.412L158.5 365.412L271.5 245.412C263.988 237.849 247 222.4 221.097 222.4M221.097 222.4C248 222.4 244 209.602 230 157.602C227.953 150 227 150.602 223 135.258C219.401 121.451 227.127 91.5 214 71.5C200.873 51.5 173.5 42.6019 171.5 54.1428C169.161 38.4556 156.383 36.5098 143 47C174 8.50003 102.5 27.4118 91.5 52.0419M91.5 52.0419C89.3494 52.7387 93.6826 51.2248 91.5 52.0419Z" stroke="black" stroke-width="6"/>
<path d="M59.5972 227.9C24.8549 204.706 28.5972 192.9 45.5972 162.9C62.5972 132.9 47.6391 96.4634 62.0972 66.4003C72 52.0419 81.9955 55.6001 91.5 52.0419C102.5 27.4118 174 8.50003 143 47C156.383 36.5098 169.161 38.4556 171.5 54.1428C173.5 42.6019 200.873 51.5 214 71.5C227.127 91.5 219.401 121.451 223 135.258C227 150.602 227.953 150 230 157.602C244 209.602 248 222.4 221.097 222.4C247 222.4 263.988 237.849 271.5 245.412L158.5 365.412L-1 270.412C18.4074 245.715 31.1057 235.325 59.5972 227.9Z" fill="#5C3D2A"/>
<path d="M59.5972 227.9C24.8549 204.706 28.5972 192.9 45.5972 162.9C62.5972 132.9 47.6391 96.4634 62.0972 66.4003C72 52.0419 81.9955 55.6001 91.5 52.0419M59.5972 227.9C124.663 270.475 171.5 252.102 221.097 222.4M59.5972 227.9C31.1057 235.325 18.4074 245.715 -1 270.412L158.5 365.412L271.5 245.412C263.988 237.849 247 222.4 221.097 222.4M221.097 222.4C248 222.4 244 209.602 230 157.602C227.953 150 227 150.602 223 135.258C219.401 121.451 227.127 91.5 214 71.5C200.873 51.5 173.5 42.6019 171.5 54.1428C169.161 38.4556 156.383 36.5098 143 47C174 8.50003 102.5 27.4118 91.5 52.0419M91.5 52.0419C89.3494 52.7387 93.6826 51.2248 91.5 52.0419Z" stroke="black" stroke-width="6"/>
<path d="M73.5002 99.69C58.5961 122.902 73.7399 143.355 80.5001 176.69C127 157.69 156.5 152.69 199.5 176.69C210.266 145.37 213.16 128.952 204.5 104.69C187.5 78.1901 149.5 78.6901 137.5 99.69C123 76.1901 92.0001 73.1901 73.5002 99.69Z" fill="#F8EDD5" stroke="black" stroke-width="4"/>
<path d="M165.5 162.19C165.5 163.388 165.277 163.998 165.069 164.296C164.904 164.533 164.657 164.709 164.135 164.778C163.558 164.854 162.744 164.779 161.645 164.515C160.562 164.255 159.313 163.839 157.902 163.321C157.009 162.992 156.046 162.621 155.033 162.23C152.918 161.413 150.584 160.512 148.205 159.746C144.655 158.602 140.815 157.69 137 157.69C130.568 157.69 124.18 160.318 119.242 162.349C118.388 162.7 117.577 163.034 116.816 163.333C115.497 163.851 114.345 164.264 113.354 164.522C112.344 164.784 111.63 164.85 111.148 164.78C110.739 164.721 110.548 164.58 110.403 164.35C110.207 164.041 110 163.409 110 162.19C110 157.502 113.091 153.03 118.193 149.652C123.268 146.292 130.103 144.19 137 144.19C143.903 144.19 151.13 146.296 156.596 149.677C162.114 153.09 165.5 157.567 165.5 162.19Z" fill="#F8EDD5" stroke="black" stroke-width="3"/>
<path d="M110.692 118.234C114.46 119.17 117.403 122.063 119.09 126.053C120.777 130.044 121.192 135.105 119.905 140.284C118.619 145.463 115.883 149.741 112.524 152.478C109.166 155.216 105.212 156.394 101.443 155.458C97.6752 154.522 94.7325 151.629 93.0454 147.639C91.3581 143.647 90.9435 138.586 92.2302 133.408C93.517 128.229 96.2522 123.951 99.6111 121.213C102.97 118.476 106.924 117.298 110.692 118.234Z" fill="black" stroke="black"/>
<path d="M164.444 118.234C160.675 119.17 157.733 122.063 156.046 126.053C154.358 130.044 153.944 135.105 155.23 140.284C156.517 145.463 159.252 149.741 162.611 152.478C165.97 155.216 169.924 156.394 173.692 155.458C177.461 154.522 180.403 151.629 182.09 147.639C183.778 143.647 184.192 138.586 182.906 133.408C181.619 128.229 178.884 123.951 175.525 121.213C172.166 118.476 168.212 117.298 164.444 118.234Z" fill="black" stroke="black"/>
<circle cx="163" cy="126.19" r="3" fill="white"/>
<circle cx="109" cy="127.19" r="3" fill="white"/>
<circle cx="104" cy="131.19" r="3" fill="white"/>
<ellipse cx="168.5" cy="158.19" rx="6.5" ry="6" fill="black"/>
<ellipse cx="107.5" cy="157.69" rx="7.5" ry="6.5" fill="black"/>
<path d="M213 204.69C213 217.165 205.073 228.742 191.664 237.299C178.278 245.841 159.664 251.19 139 251.19C118.336 251.19 99.7217 245.841 86.3358 237.299C72.9268 228.742 65 217.165 65 204.69C65 192.215 72.9268 180.638 86.3358 172.081C99.7217 163.539 118.336 158.19 139 158.19C159.664 158.19 178.278 163.539 191.664 172.081C205.073 180.638 213 192.215 213 204.69Z" fill="#F8EDD5" stroke="black" stroke-width="4"/>
<path d="M177.247 162.709C177.033 163.032 176.532 163.307 175.645 163.268C174.78 163.231 173.707 162.888 172.668 162.201C171.629 161.515 170.892 160.663 170.518 159.882C170.135 159.082 170.19 158.513 170.404 158.189C170.618 157.866 171.119 157.591 172.005 157.63C172.871 157.667 173.943 158.01 174.983 158.697C176.022 159.383 176.759 160.235 177.133 161.016C177.516 161.816 177.46 162.385 177.247 162.709Z" stroke="black" stroke-width="1.8"/>
<path d="M98.2516 162.05C98.4475 162.385 98.9328 162.686 99.8197 162.696C100.686 162.706 101.776 162.422 102.851 161.794C103.926 161.165 104.709 160.355 105.125 159.596C105.551 158.818 105.527 158.247 105.331 157.912C105.135 157.577 104.65 157.275 103.763 157.265C102.897 157.255 101.807 157.539 100.732 158.168C99.6562 158.796 98.8741 159.607 98.4577 160.366C98.0313 161.144 98.0558 161.715 98.2516 162.05Z" stroke="black" stroke-width="1.8"/>
<path d="M225 138.69C243.695 140.717 239.497 148.273 231 162.19L225 138.69Z" fill="#F7C7F1" stroke="black" stroke-width="2"/>
<path d="M171 182.19L175.5 185.69C147.71 205.015 131.102 205.467 99.5 185.69L103.5 182.19" stroke="black" stroke-width="3"/>
</g>
<defs>
<clipPath id="clip0_2_44">
<rect width="270" height="270" rx="47" fill="white"/>
</clipPath>
</defs>
</svg>
